<mxfile host="Electron" modified="2024-08-12T14:35:54.769Z" agent="Mozilla/5.0 (Macintosh; Intel Mac OS X 10_15_7) AppleWebKit/537.36 (KHTML, like Gecko) draw.io/21.6.1 Chrome/112.0.5615.204 Electron/24.6.1 Safari/537.36" etag="KEMTE7c4iDs_I7fWj9Qp" version="21.6.1" type="device">
  <diagram name="ページ1" id="sYKDFtBvj1e06tSWj3Ne">
    <mxGraphModel dx="2232" dy="1139" grid="1" gridSize="10" guides="1" tooltips="1" connect="1" arrows="1" fold="1" page="1" pageScale="1" pageWidth="1654" pageHeight="1169" math="0" shadow="0">
      <root>
        <mxCell id="0" />
        <mxCell id="1" parent="0" />
        <mxCell id="tQYVdQLkCmxTkYTXcwZQ-76" value="" style="verticalLabelPosition=bottom;verticalAlign=top;html=1;shape=mxgraph.basic.rect;fillColor2=none;strokeWidth=1;size=0;indent=5;fillColor=none;strokeColor=#b85450;" vertex="1" parent="1">
          <mxGeometry x="1150" y="115" width="340" height="1020" as="geometry" />
        </mxCell>
        <mxCell id="tQYVdQLkCmxTkYTXcwZQ-73" value="" style="verticalLabelPosition=bottom;verticalAlign=top;html=1;shape=mxgraph.basic.rect;fillColor2=none;strokeWidth=1;size=0;indent=5;fillColor=none;strokeColor=#06c755;" vertex="1" parent="1">
          <mxGeometry x="60" y="115" width="220" height="920" as="geometry" />
        </mxCell>
        <mxCell id="tQYVdQLkCmxTkYTXcwZQ-65" value="&lt;b&gt;&lt;font style=&quot;font-size: 14px;&quot;&gt;AWS Cloud&lt;/font&gt;&lt;/b&gt;" style="sketch=0;outlineConnect=0;html=1;whiteSpace=wrap;fontSize=12;fontStyle=0;shape=mxgraph.aws4.group;grIcon=mxgraph.aws4.group_aws_cloud;strokeColor=#ff9900;fillColor=none;verticalAlign=top;align=left;spacingLeft=30;dashed=0;" vertex="1" parent="1">
          <mxGeometry x="370" y="115" width="690" height="1020" as="geometry" />
        </mxCell>
        <mxCell id="tQYVdQLkCmxTkYTXcwZQ-1" value="&lt;b&gt;&lt;font style=&quot;font-size: 13px;&quot;&gt;SQS&lt;/font&gt;&lt;/b&gt;" style="sketch=0;points=[[0,0,0],[0.25,0,0],[0.5,0,0],[0.75,0,0],[1,0,0],[0,1,0],[0.25,1,0],[0.5,1,0],[0.75,1,0],[1,1,0],[0,0.25,0],[0,0.5,0],[0,0.75,0],[1,0.25,0],[1,0.5,0],[1,0.75,0]];outlineConnect=0;fontColor=#232F3E;gradientColor=#FF4F8B;gradientDirection=north;fillColor=#BC1356;strokeColor=#ffffff;dashed=0;verticalLabelPosition=bottom;verticalAlign=top;align=center;html=1;fontSize=12;fontStyle=0;aspect=fixed;shape=mxgraph.aws4.resourceIcon;resIcon=mxgraph.aws4.sqs;" vertex="1" parent="1">
          <mxGeometry x="930" y="193" width="78" height="78" as="geometry" />
        </mxCell>
        <mxCell id="tQYVdQLkCmxTkYTXcwZQ-7" style="edgeStyle=orthogonalEdgeStyle;rounded=0;orthogonalLoop=1;jettySize=auto;html=1;exitX=1;exitY=0.5;exitDx=0;exitDy=0;exitPerimeter=0;entryX=0;entryY=0.5;entryDx=0;entryDy=0;entryPerimeter=0;strokeWidth=2;fillColor=#f5f5f5;gradientColor=#b3b3b3;strokeColor=#666666;" edge="1" parent="1" source="tQYVdQLkCmxTkYTXcwZQ-2" target="tQYVdQLkCmxTkYTXcwZQ-1">
          <mxGeometry relative="1" as="geometry" />
        </mxCell>
        <mxCell id="tQYVdQLkCmxTkYTXcwZQ-52" value="&lt;b style=&quot;font-size: 14px;&quot;&gt;Entry&lt;br style=&quot;font-size: 14px;&quot;&gt;Queue&lt;/b&gt;" style="edgeLabel;html=1;align=center;verticalAlign=middle;resizable=0;points=[];fontSize=14;" vertex="1" connectable="0" parent="tQYVdQLkCmxTkYTXcwZQ-7">
          <mxGeometry x="-0.142" relative="1" as="geometry">
            <mxPoint as="offset" />
          </mxGeometry>
        </mxCell>
        <mxCell id="tQYVdQLkCmxTkYTXcwZQ-2" value="&lt;b&gt;Lambda&lt;/b&gt;" style="sketch=0;points=[[0,0,0],[0.25,0,0],[0.5,0,0],[0.75,0,0],[1,0,0],[0,1,0],[0.25,1,0],[0.5,1,0],[0.75,1,0],[1,1,0],[0,0.25,0],[0,0.5,0],[0,0.75,0],[1,0.25,0],[1,0.5,0],[1,0.75,0]];outlineConnect=0;fontColor=#232F3E;gradientColor=#F78E04;gradientDirection=north;fillColor=#D05C17;strokeColor=#ffffff;dashed=0;verticalLabelPosition=bottom;verticalAlign=top;align=center;html=1;fontSize=12;fontStyle=0;aspect=fixed;shape=mxgraph.aws4.resourceIcon;resIcon=mxgraph.aws4.lambda;" vertex="1" parent="1">
          <mxGeometry x="700" y="193" width="78" height="78" as="geometry" />
        </mxCell>
        <mxCell id="tQYVdQLkCmxTkYTXcwZQ-4" value="&lt;b&gt;&lt;font style=&quot;font-size: 14px;&quot;&gt;S3 Bucket&lt;/font&gt;&lt;/b&gt;" style="sketch=0;points=[[0,0,0],[0.25,0,0],[0.5,0,0],[0.75,0,0],[1,0,0],[0,1,0],[0.25,1,0],[0.5,1,0],[0.75,1,0],[1,1,0],[0,0.25,0],[0,0.5,0],[0,0.75,0],[1,0.25,0],[1,0.5,0],[1,0.75,0]];outlineConnect=0;fontColor=#232F3E;gradientColor=#60A337;gradientDirection=north;fillColor=#277116;strokeColor=#ffffff;dashed=0;verticalLabelPosition=bottom;verticalAlign=top;align=center;html=1;fontSize=12;fontStyle=0;aspect=fixed;shape=mxgraph.aws4.resourceIcon;resIcon=mxgraph.aws4.s3;" vertex="1" parent="1">
          <mxGeometry x="700" y="600" width="78" height="78" as="geometry" />
        </mxCell>
        <mxCell id="tQYVdQLkCmxTkYTXcwZQ-6" style="edgeStyle=orthogonalEdgeStyle;rounded=0;orthogonalLoop=1;jettySize=auto;html=1;exitX=1;exitY=0.5;exitDx=0;exitDy=0;exitPerimeter=0;entryX=0;entryY=0.5;entryDx=0;entryDy=0;entryPerimeter=0;strokeWidth=2;fillColor=#f5f5f5;gradientColor=#b3b3b3;strokeColor=#666666;" edge="1" parent="1" source="tQYVdQLkCmxTkYTXcwZQ-5" target="tQYVdQLkCmxTkYTXcwZQ-2">
          <mxGeometry relative="1" as="geometry" />
        </mxCell>
        <mxCell id="tQYVdQLkCmxTkYTXcwZQ-54" value="&lt;b style=&quot;font-size: 14px;&quot;&gt;Verification of&lt;br style=&quot;font-size: 14px;&quot;&gt;X -Line -Signature&lt;/b&gt;" style="edgeLabel;html=1;align=center;verticalAlign=middle;resizable=0;points=[];fontSize=14;" vertex="1" connectable="0" parent="tQYVdQLkCmxTkYTXcwZQ-6">
          <mxGeometry x="-0.0352" y="-2" relative="1" as="geometry">
            <mxPoint as="offset" />
          </mxGeometry>
        </mxCell>
        <mxCell id="tQYVdQLkCmxTkYTXcwZQ-5" value="&lt;b&gt;API Gateway&lt;/b&gt;" style="sketch=0;points=[[0,0,0],[0.25,0,0],[0.5,0,0],[0.75,0,0],[1,0,0],[0,1,0],[0.25,1,0],[0.5,1,0],[0.75,1,0],[1,1,0],[0,0.25,0],[0,0.5,0],[0,0.75,0],[1,0.25,0],[1,0.5,0],[1,0.75,0]];outlineConnect=0;fontColor=#232F3E;gradientColor=#FF4F8B;gradientDirection=north;fillColor=#BC1356;strokeColor=#ffffff;dashed=0;verticalLabelPosition=bottom;verticalAlign=top;align=center;html=1;fontSize=12;fontStyle=0;aspect=fixed;shape=mxgraph.aws4.resourceIcon;resIcon=mxgraph.aws4.api_gateway;" vertex="1" parent="1">
          <mxGeometry x="434.41" y="193" width="78" height="78" as="geometry" />
        </mxCell>
        <mxCell id="tQYVdQLkCmxTkYTXcwZQ-28" style="edgeStyle=orthogonalEdgeStyle;rounded=0;orthogonalLoop=1;jettySize=auto;html=1;entryX=1;entryY=0.5;entryDx=0;entryDy=0;entryPerimeter=0;strokeWidth=2;fillColor=#f5f5f5;gradientColor=#b3b3b3;strokeColor=#666666;" edge="1" parent="1" source="tQYVdQLkCmxTkYTXcwZQ-8" target="tQYVdQLkCmxTkYTXcwZQ-1">
          <mxGeometry relative="1" as="geometry" />
        </mxCell>
        <mxCell id="tQYVdQLkCmxTkYTXcwZQ-55" value="&lt;font style=&quot;font-size: 14px;&quot;&gt;Polling&lt;/font&gt;" style="edgeLabel;html=1;align=center;verticalAlign=middle;resizable=0;points=[];fontStyle=1" vertex="1" connectable="0" parent="tQYVdQLkCmxTkYTXcwZQ-28">
          <mxGeometry x="-0.2012" y="-2" relative="1" as="geometry">
            <mxPoint as="offset" />
          </mxGeometry>
        </mxCell>
        <mxCell id="tQYVdQLkCmxTkYTXcwZQ-42" style="edgeStyle=orthogonalEdgeStyle;rounded=0;orthogonalLoop=1;jettySize=auto;html=1;exitX=0.5;exitY=1;exitDx=0;exitDy=0;entryX=0.5;entryY=0;entryDx=0;entryDy=0;strokeWidth=2;fillColor=#f5f5f5;gradientColor=#b3b3b3;strokeColor=#666666;" edge="1" parent="1" source="tQYVdQLkCmxTkYTXcwZQ-8" target="tQYVdQLkCmxTkYTXcwZQ-37">
          <mxGeometry relative="1" as="geometry" />
        </mxCell>
        <mxCell id="tQYVdQLkCmxTkYTXcwZQ-8" value="Receive Message" style="rounded=1;whiteSpace=wrap;html=1;fillColor=#647687;fontColor=#ffffff;strokeColor=#314354;fontStyle=1" vertex="1" parent="1">
          <mxGeometry x="1204.41" y="209" width="120" height="46" as="geometry" />
        </mxCell>
        <mxCell id="tQYVdQLkCmxTkYTXcwZQ-9" value="" style="shape=image;imageAspect=0;aspect=fixed;verticalLabelPosition=bottom;verticalAlign=top;image=data:image/jpeg,/9j/4AAQSkZJRgABAQAAAQABAAD/2wCEAAkGBxIQEhUSExEWFhEWFxcXFxgYGBcYGRYZGBcXGBcXIBoYHSggGBolGxUVIjEhJSkrLi4uFx8zODMsNygtLisBCgoKDg0OGxAQGy0mICYtLS0tMi8tLS0tLy0tLS0tLS0tLS0tLS0tLS0tLS0tLS0tLS0tLS0tLS0tLS0tLS0tLf/AABEIAOEA4QMBEQACEQEDEQH/xAAcAAEAAgIDAQAAAAAAAAAAAAAABQYEBwIDCAH/xAA8EAABAwIDBQQHBgYDAQAAAAABAAIDBBEFEiEGMUFRYQcTInEyQoGRobHRCCNSYsHhFBVygrLwM1OSQ//EABoBAQACAwEAAAAAAAAAAAAAAAABAgQFBgP/xAAyEQEAAgECBAIJBAIDAQAAAAAAAQIDBBEFEiExQVEiYXGBkaGxwdETMuHwFEIjUvFy/9oADAMBAAIRAxEAPwDeKAgICAgICAgICAgICAgICAgICAgICAgICAgICAgICAgICAgICAgICAgICAgICAgICAgICAgICAgICAgICAgICAgIOEsjWgucQ1o3kmwHtKDDfjdMGGQ1EWQal2dth8UHZR4nBMzvI5mPj/EHAj38EGWCgICAgICDolrI2AudI0NboSXAAHkTwKDFpcepZWZ2VMTmXtcPba/vQZlNUslbmje17ebSCPeEHagICAgICAgICAgICAgICDX+0na7h1FK+AmSWVlw7u2gtDh6uYka3003IbNZS9r2M1LnOp442MBIsyLPl5XLybm3kOi87ZK1/dOxMxHdVbYnX94H1Er3GxeyR7mlw4Gx0IXnk1OOm0zPRE3iCLYqofFmaSH7nRvGU3HIgkOHJeE6/HW209vOFf1Y3KrZaqhY10bn93Jlzt1DmEm3ia02dbmFamtx2tNZ8PhKYyRPRlR4rjNG/wDho6qcZAXtDXktcBqSL7x0XrTU47U54nomLVmN2xdk+3OIxsjr4nia+V0sYGQjg8tvdp5gAjS4tewyFtm4qSqZMxskbg6NwBa4G4IPFEO0m2p3INW7WdtdJSulhp43TzNBDX6CHPu1N8xA6DXdfiCdmp6va3G6oi9VNapzBrGnI0tOhs0ei3qvKc1I3mZ7d0bxDGptlayaR8T5XCNpGdxLi1zrA6AnxnXesa+ux1pFo67+Ck5IiHGHYubI57iWR7wy2aR34fCDYHzOiidfTmisdfofqxvs6hQYhRR5myvia5wysa85nO/pbxsvamqx3ttWfwtF4lZ6XtQx2mY0vs+NoAvLF6XLM4EOJ63uvWuWlp2iY3TvEzs2Ds/230MzYm1DXwyu0ebZomuva+a98p37tL6r0Ts2ix4cAQbgi4I4g8UQ5ICAgICAgICAgICDi8gA33WQeQDPT/zCVzh3tM+aQZnXvle85X3B37j1F1454tNJ5J2ktvt0bLw7CIKckxRhl99idfeVz2TPkydLzuxJtM92dbXqvJUUAg4lgJBsLi9jxF96nedtkq9iex0ExlcPC+QAjkx4vcjo64uOizcWuyU5YnrEfT+HpXLMbM/sQ2rlpKp2FVB+7eT3Vz6Eg3tH5XD4gcyt7S0WrFo7MjvG6wdvG2j6eNtBTutNMLyuB1bHuDByLz8B1UylQsH2HiELO+uZS5r3dAL/AHflrqVps3ELc88nbt/LHtlnfotwiaLENF2iw03DkOQ0C13NPm8t3NVQIBCkY2IYfHUNDZW5mg3sSbfBXx5b453rOy0WmOzWG2kcEc3dQRBjY9HEXOZ51tc8APjdb3Rzktj5rzvv9GTj3mN5eqNjiw0NL3by+PuI8riLFwyixI4FZiyYQEBAQEBAQEBAQEHxzbgg7jog8nTsNDis8NNHnYJXsEbgAXNvfLrxHDyCx9TSt8c807evyReImvVsankztDi1zCRfK6wc3obLnLRyztvuxJcpIw7f9CPaEi0x2IlgTmoi1YBMzi0kNkHk70X+Rseq9a/pX6T6M/L+Fo2n1OWHYxDOS1riJB6Ubxle3zad/mLhRkwXx9Z7ecdkTWYZ68VRBQ9voXU9RBWR6OuLn80ZBb7xp/atzw3LvWaT4fdkYZ3jZwoa52L4q6qkGgHeZd4GUNa1vlmN1ka7LyYZ28ei+Sdqr+ueYggxcQxKKnGaWQN5De49A0akr0x4b5J2rC0VmezFp6mefVrO4i5vAMrvJg8LPMk+S9bUx4+kzzT6u3x8UzER60hFCG8yeZNyV4WtMqzLsJVUNXbb18ssrWPiMUY1a2zc7rm2dwB3nWwW/wBFirWu8TvPy9kMrHERD1Ts9Qsp6WCGO+SONjW332DRv6rOXSCAgICAgICAgICAgIPPX2hcIbDWQ1McZZ3rTneL2MjDp5Oy2USmGRszVmaBrnStkO7M0EHycDucuc1VIpkmIiY/vgxLxtKVWMoII3F8FiqRdwLZB6MjdHt9q98Oovi7dvLwWraYQX85qcPcGVbTLATZszRr7Rz6b+V1mfoYtRHNi6T5PTlrfrVaaOrZMwSRvDmHcR/uh6LX3pak8to2l5TEx3U7tOrG5Iob+PMXkcgAWi/mSf8AyVsuGUne1/Ds9sEdd0X2bVjWVD43EAyMs083NN7e0X9y9+I0m2KJjwlfNG8NkyPDQXOIDQLkk2AHO60kRMztDGVWq2mlqXmCgZmPrSu0a0c9eHX3ArYU0lMVefPPuekUiOtknhGz7IT3kjjNUHfI7W3RoPoheGbVWvHLXpXyVtffpCZWKoIMfEZiyNzg5rCATmf6I6my9MVea8RMTPsTWN5U3suw4V+MMMoM7Gl0jnEEDw+i4g7he1gumx1itYiI2ZnaHqJXBAQEBAQEBAQEBAQEFd7QNnv5jQT0zQ3vHNvGXcHtIc3Xhe1r8iUHmrAar+WVDoqqGWORps4agjzZue3iCPYsPV4LZabV2/vrVyVm0dGyKKsjmbnjeHt5j5HiD0K0N8dqTtaNmLMTHd3qiBB11EDZGlj2hzSLEHirVtNZ3jumJ2a4xdsuET/cSfdyguDTrbW2o6cD9FusM01eP046wya7ZI6qvV1L5Xl8ji553krOrWKxtXs9YiI7Otjy0ggkEG4I3gqZ6pWKkrqnE5IqWSazNb8M2UXJP4nWGixLY8WmrbJWrymsUjdsvDMOjpmCONtmj3k8yeJWjy5bZLc1mNa0zO8speaog4TStY0uc4NaNSSbAe0qa1m07QmI3a82xxyKrLYoWvkdewILspJPBg9I9SFu9Fpr4+ttvv8AFkY6THdu7sW2Ukw6hJnjDaiZ5kIt42MytDGOPPwl1uGdbF6S2AgICAgICAgICAgICAgINcdrfZ0/FQyaB7W1MYLbO0bI0m9rj0SOBRLTFHtBWUU5paktaY3ZXiQXLLdWbxxvre6wM+ix23tEdfU87Y4nqutNj1LIQG1EZcTYC9iSeFitRbTZa9ZrLHmlo8EjZeCqNxfHYKUHvJBm4MBu4+zh5le+HTZMs+jHTz8F60m3ZqjHMUfVzOlfpfRo/C0bh/vMrf4cUYqRWGXSvLGzAXqsIO6jqXRPbIw2c0gg9QotWLVms9pRMbxs2tgW1EFUAM4ZLxY42ufyk71oM+jyYp6RvDEtjmqdssR5sGrxenhOWSZjXb7E628l60wZLxvWsytFZnspe0W2Mufu6aRhYdA5rSXdB4uPsW00+hptveJ3e1MUd5bH7Key+opqgV9a4CUAlkYIcQXaFznDS9r6C+/fwWziNns3EpQICAgICAgICAgICAgICAg8+9s+0+FVD3Rw07ZqseF1Q05Q23C4/wCW3u6omGscIFQ12eAEO3ZrD4Fw+S870reNrdmRj0mXP+yszHySlSMQkHincRyDyPgLBUrgxV7Vj4MqODZ4/wBY+Kv1EDo3FrhZw3+3VezCyY7YrTS8bTCRw7BHSDM85W8OZ+ijdsdJwvJmjmv0r85TMWDQN9S/mSo3bmnCtNWOtd/a+yYNAfUt5Epum/C9NaP27exEYhgTmAuYczeXEfVTu0+r4VfFHNj6x80bSUj5TZguRv4WRr8ODJnnlxxumqWCuhH3czmgeqHm3uOi874sd/3RE+5lW4PqP+sfFg4xVVMlv4guNtxIHzAU48VKfsjZh5NNfDO16zDaXYxLgr3xtkgyYg22Uyuzse8D0mXsGuJ1yndwXq8Zb8RAgICAgICAgICAgICAgICDTnbvty6Bv8vp35ZJG3ncN4Yf/nfhm49NOKJhqHBsHBAkkF76tad3mefkqzLoOHcMraIy5Y9kflPhVb+I26Qxq+tbC3Md/AcypiGNq9XTT05p7+EK5hn31QC/Ukl3mRuH+8lLm9HtqNXE5eu/VbFV1wgICCu4o7+GnEjB6Qu4cDrr71aOzm9bP+HqoyYvHvH1+KcpalsrQ5p0Pw6Kre6fPTPSL0/8dr2hwsQCDvB1CPW1a2jltG8K3i+F9ye9iuGg30Juw8CDvVolzPEeHfo/8mP9v0/h6B7GduDiVMYZ3Xq4AA4nfIz1X/1cD7+Ks08tjIgQEBAQEBAQEBAQEBAQddRKGNc87mguPkBcoPH9TWOxGuknkue8e6R1+DR6LfIDK1RLN0GD9bPWk9u8+yFiVHaMPEcRZCNdXcG/XkFMQwdZrqaaPO3hH5VKqqXSuLnG5PuHQcgpcpmzXzXm953lwjkLSCDYjUKVK3mtotWesLHQ4+xwtIMruY3H6KuzodNxilo2zRtPn4fwlI6ljhcPaR5hQ2tNRivG9bR8XJ0zRvcPeETObHEbzaPiwKvGooxoc7uQ+vBTswdRxXBjj0Z5p9X5VmsqnSuL3bz8ByVnM589s2Sb37udBXOhdmbu4jgf36qHppdVfT35qe+PNbqOsZK3M0+Y4jzVXWabVY9RXmpPu8Ydz2BwIO46FHvesXrNbdpYXZzijsPxaHXwmTuX9WyHKPiWlXhw+fFOLJak+E7PWCl4CAgICAgICAgICAgICCB28n7vDa12bLamnsfzGNwb7bkD2oPKezkrGPcXOA8Ol/PVVlt+E5MePLa1526MvEMfA8MWp/Edw8hxUbMzV8Y/1wfH8QhqeCSd9hcuOpJ4dSVZpsWHLqMm1es+M/lYaTAomel43dd3u+qru6HBwjDSN8npT8vh+Wb/AAEX/Uz/AMhN2b/hafbbkj4Qja/AWuF4/C7lwP0TdrdVwekxzYek+Xh/CuPYWkgixG9Wc7as1naY6jWkmw1J3IiK7ztCzYdgjGAGQZn8j6I9nFV3dNo+E46RFssbz5eEflKiMbrC3kobWMdIjbaPgwqvCIpPVyu5t0+G4qd2FqOGYMsdtp84/HZX54JaV4IPk4bj0/ZS57LizaLLvv7J8J/vkmcPxxj9H2a74H6eSjZutLxbHk9HL6M/KfwjMTmDKrOD6Lo3X5WDT+itDS8TmJ1N5r6vpD2JRTB8bHtILXNaQRqCCAQVLXu9AQEBAQEBAQEBAQEHXUTtja573BrGgucToAALklB5q7Tu0qXFXupacFtFmAA9actNw53JtwCG9AT0helJtO0R1UerwiSNmd1rcQN4uoZ2fh2bDj/Uvtt849rBa0kgDUnQeZUsKImZ2hc8OoxCwNG/1jzP0VZl2Wj0safHFfHx9rKUMsQEFb2np7Oa8esCD5j9j8FaHNcZwRXJGSP9vrDp2cgzS3O5oJ9u4fM+5JePCcUX1G8/6xv9oWpVdWICDprKYSsLDx3HkeBRj6nT1z45pb3eqVJljLSWneCQfYruLvWaWmtu8dEqzAXOjDw4ZyL5bcDu152UbtnThOS2GMlZ6z129Xt81y7Mu0qbDJG01SXPoyQ0h3pQfmbf1Rxby3KWqvSaztMdXpSGVr2hzSC1wBBG4g6gqVHNAQEBAQEBAQEBAQab+0NtQ6KKKgjcQZfvJiOMY0azyLtT/SOZRMNV4BQBje8I8bt3QKky6jhWjjHT9W3ee3qhm4m28Mn9DvgL/okM7W130949U/Lqrmz8WaYflBd+g+amXN8LxxfU138Oq2KrrhAQEELtS7wMHEu+Q1+YUw0nG5j9Okeufoxdln+N45tB9x/dTLF4JbbNaPV94WRVdKICAgqu0keWa/4mg+3UfoFaHKcXpFdRMx4xE/b7LSwWA8lV1FI2rEepD7RUIc3vB6Td/UfspiWo4vpItT9aveO/rj+G4fs+bTmoppKKQ3fTWMZJ1MT7+H+1wPse0cFdzMttIgQEBAQEBAQEBAQeWe1+qM+MztPqOZEPIAfVQ9MVea0R5zDsAtpyVHeRG0bQx8RNopP6HfIqYY+tnbT5P/mVd2beBNbm0gfA/oplzvCLRXUxE+MTH3+y1KrqxAQEFX2kqQ+QNG5g+J3/ACCtDluL54yZuWO1fr4sPDKrupGu4bj5HejD0mf9DNW/x9i6A3VXaRMTG8CJEBBVtpn3lA5NA9puflZWhyvGLxbUbR4REfdZKWTMxrubQfeAquk09+fFW3nEfRzkbcEcwUXyVi1JrPkzOwSodHiwYDo+KVjuoaA4fFgV3B2jbo9MKVRAQEBAQEBAQEBB5Z7XqYwYzO4+u5kg8iB9FD0xW5bRPlMOwG+qo7yJiY3hG7QS5YSPxED43PyUw1vFsnLppjzmI+6rQyljg4bwbhWcvS9qWi1e8dVzoaxszczfaOIPJUl2Wl1VNRTmr748mQjJEEXi+KiIFrTeT/Hz69FMQ1XEOI1wxNKTvb6fz6lZZC95uGuceNgT8lZzVaXyT6MTPsjdykpJGi7o3gdWkfMKE3wZKRvasx7YlK4Li4b93IfDwdy6Hokw2vDuJRj/AOPLPTwny/hYmuBFwbg8QqujraLRvE7w+olj11Y2FuZx8hxJU7MbVaqmnpzW90eamTzF7i47yblWcbkyWyXm9u89VrwGXNA3m27T7Dp8CFWXU8Kyc+miPLeP77mZUSBrXOO4AlQzc14pjtafCEl9n+jdJihl4RQyOP8AfZgHn4j7iruFmd3pRSqICAgICAgICAgINM/aI2ZdJFFXxtv3X3c1h6jj4H+Qd4f7hyRMNW4BXh7MhPjb8RzVJdTwrWRkp+lafSj5wjdoqwPeGNN2t49VMNbxXVRlyRWvav1RKlqnZBO5hzNcQen+6qF8eS+O3NSdpSce0Eo3hp+CbQ2VeMaiI2naXTUYzM/QHLf8I1PtTZ5ZeJanLG2+3sSmF4I1ozSC7zrbgPqVEy2eh4VWsRfNG8+Xl7fWmQLaDQKG6iIrG0CJYGIYUyUbg1/Aj9RxU7tdq+HYs8bxG1vP8q2JpqdxYHFpHDePPVS5yMmfS3mkTMT8nc7HJyLZgOoAum0PaeKaqY25vlDBllc83c4k8yUYN72vPNad59bvhw6V4u2M257r+9Hvi0efJG9KTt/fNI4JOYHmKQZc1iL8+HsKS2HDs06XLOLLG2/n5ue0OIgjumm/4iPkkQ9OLa2Lf8NJ9s/ZvrsN2TNDRGaVpE9UWvINwWxtB7tpHA+Jzju9IA7lZoJbIRAgICAgICAgICAg6qqnZKx0b2h0b2lrmkXDmuFiCOIIKDx/tpg4oa6opwLNZIcu/wBE6t1O/QgX6KFo6uWz+HNeO8eL62AO7TiomW84VoaZKzlyRv5QmJKCJwsY2+wAfJRu3N9Dp7RtNI+GyCxTBDGC+O5bxHEfUKYlotbwu2GOfH1r84Q6NQldnKYPkzHcwX9vBJbThOCMmfmn/Xr71pVXVCAgIIPaenGVsnEHKfI7laGi41hjlrljv2lXQL6Depc/3WjCcHEdnPAL+XBv7qsy6XQcMrjjnyxvby8v5SyhuEZtBTh8RdbVuo8uKmGr4thi+Dm8a/Txc+yjCBV4pTxuaHMaTI8HcQwX+dlaHKS9ZAKVRAQEBAQEBAQEBAQEGgftF4FknhrWjwyt7t/9TNW+8E+5RKYUrZ//AIG+Z+arLreE7f40e2UiobMQVjHsNEZzsHgJ1H4T9FaJctxPQxhtz0/bPyn8O/ZZwu8cbApL34JaOa8eqFgVXRCAgIIraV9obcS4fC6mGo4zaIwRHnMMXZyg/wDq4dG/qVMsbhGk3/57e78p9VdAIMXFP+GT+kqYYmv2/wAa+/kt32baYGpqpCNWxMaDyzOJP+Ks4qW/lKBAQEBAQEBAQEBAQEFB7b8INThUpaLvgc2YeTdH+wMc4/2oQ8/bMVOjozvHiHlx/wB6qkuj4Lnja2KfbH3TqhvhB1VUAkY5h4j48EeOowxmxzSfFUMPqTDIHctHeXFWchpc86fLF/LpPsXKKQPAc03B3FVdljyVyVi1Z3iXJFxAJtrwREzERvKqYvWd/IGt9EHKOpJ3q0OT4hqf8nNEU7R0haYowxoaNwFvcquqx44x0ikdo6OSLiCJ2jqcseTi8/Ab1MNPxjPy4oxx3t9Ibh+zvgxiopalwsaiTw9WRAtB/wDZk9wV3Ly2uiBAQEBAQEBAQEBAQEHCWMPaWuALXAgg7iDoQg8q9oeycuDVpyA/w7iXQPOoLeMZPMbuosVD2w5bY7xeveH3D65szbjfxbxH7Ksw7DSaymorvXv4wylDLEFHriDI8jdmd8yruGzzE5bTHnP1dlDiEkPonTi06g/RQ9dNrMunn0J6eU9kzFtGz1mOB6WI/RRs3GPjdNvTpPu6/hyk2ijHoscT1sE2TfjePb0azPt2j8omvxWSbQ+Fv4R+p4qWq1XEM2o6W6R5Qx8PNpYzwD2f5BHhppiM1Jn/ALR9V3VXbiDorKtsTczj5DifJTsx9RqceCvNef5Ruy+BT4zWtiaCGkgvdwijB1Pny5lWhx+p1Fs+Sb2/8jyescMoI6aGOCNuWONrWNHINFgpYzKQEBAQEBAQEBAQEBAQEEVtLs/T4jA6nqGZmO3EaOY7g9p4OH7G40QedtsOyyvw15khDp6cejJGPGBycwajzFwfgI2elMlqTzVnaVVp9oZB6TQ7ruKjZtsXGc1Y2vEW+UuVVtC5zSGsyk8b3Ps0CbJz8YyXry0rt699/wAIdjC42AJJ4BS1NazadojeUvTbPPdq9wb09I/oPio3bXDwbNfreYr85/vvZjNnY+L3nysP0Kjdm14Ji29K0/KPy+nZ2L8T/e36JumeCYfC1vl+GPPs4fUkv0cLfEfRTuxsnBLRG+O+/tjb59UPVUr4jleLH5+1S1GbBkw25ckbSlKbaFzWgOYHEcb2Pt0KjZtMPGclK8t67+vfb8vk20MjtGMa33uP++xNkZeNZrftiI+awbK9nGI4o8Pc10UJOssoI045WaFx6aDqpanJlvktzWneXonY7ZKmwuAQwN1Or3u9OR3Mn5AaBS8k8gICAgICAgICAgICAgICAgINZ9oPZFT1+aamLYKo3J0+6kP5gNWn8wHsKJ3aE2j2VrMPeWVMDmcnb2O6hw0KhO7q2dqGMkObe4WB5H91EtpwrNjx5vT8ekStSq6sQEBBW9pKxryGDXLe568laHM8X1NMl4x1/wBe8/Z3bMbF12JOAp4CWcZHeGNvUuO/2XKlpt2/9gOyulw0CSS09Vxe4eFlxqGNP+R1PTcpRu2CAiBAQEBAQEBAQEBAQEBAQEBAQEBB1VNMyVpZIxr2neHAEe4oNLdqXZDe9Vh0YuAO8p26Xt68fXm3jw10JO7U1JjEkJ7uVpOXQg6Pb0N/1Vdm30nFcmKOW/pR80pHjcB3vLehB/S4UbNvTi2ltHWZj2xP23JMbgHr36Bp/UBNi3FtLEdLb+yJ++yLrMafL4ImkX001cegspiGp1fFr5Y5cccsfNtPsq7JXZm1mIR2aPFHA7eTwc8cOjferNPMt4wxNYA1rQ1o3AAAD2BEOaAgICAgICAgICAgICAgICAgICAgICAgrm02w1BiOtRTtL/xt8L/AP03eg19X9gdOT9zWStHJ7Wu91rInd8ouwKAH72skcOTGtb87obr/szsFh+HeKCnHef9j/G/huLt27giFmQEBAQEBAQEBAQEBAQEBAQEBAQEBAQEBAQEBAQEBAQEBAQEBAQEBAQEBAQEBAQEBAQEBAQEBAQEBAQEBAQEBAQEBAQEBAQEBAQEBAQEBAQEBAQEBAQEBAQEBAQEBAQEBAQEBAQf/9k=;" vertex="1" parent="1">
          <mxGeometry x="1267.5" y="65" width="105" height="105" as="geometry" />
        </mxCell>
        <mxCell id="tQYVdQLkCmxTkYTXcwZQ-10" value="" style="shape=image;imageAspect=0;aspect=fixed;verticalLabelPosition=bottom;verticalAlign=top;image=data:image/png,iVBORw0KGgoAAAANSUhEUgAAA+kAAAPoCAYAAACiYb/aAAAACXBIWXMAAAsSAAALEgHS3X78AAAgAElEQVR4nOzdT4xV150v+p1AF2lKwoVbpM19SFWR1UYCtSEDIqGWMBkkA1qm3YPTM8dEsifu8JIrlXtky45s3SvFJaWvSHsSS8HtpzepQXKJLoP0IJjBLSlcycZX5jWWrFRd8druRteUkeDFxE4//Tbn4AKqoOr822ut/flIJTu2A+fsfTh7f/f6/X7rSxWwbhMLnZmqqma6//3+qqqmun//QPd/r7Ty3wMAlObMHe9nsaqqpe7fL1dV9U7v728cnH/H2Yf1EdKha2KhM7UiWO+/I3gfdpwAAAb2TjfA9wL9Yu/nxsH5RYcXhHRaaGKhc7i7Gh4/+7qhXAgHAGheL8S/tSLAv3Pj4Pyyc0NbCOkUq1uavr/789iKYA4AQF56gf2tFcFdCT1FEtIpQjeQH+6ujO+3Mg4A0Apnuqvv5wV3SiGkk6VuyXovlB82oA0AgBUD697qBXil8uRGSCcLK0L5Y1bJAQDYgHe6gb0O7kI7qRPSSdLEQidK1p8QygEAGLJeaP+vNw7O37mNHDROSCcJK3rK/0r5OgAAY/SL7ir7L2wDRwqEdBqzYrX8r1bsRw4AAE1Z7Ib2NwyhoylCOmPVDeZPdcO57dAAAEjVcjewR1n8L5wlxkVIZ+QmFjq91fInlLEDAJAhgZ2xEdIZCSvmAAAUSmBnpIR0hqY7/O1YN5wL5gAAlE4PO0MnpDOQiYXOVHe1/ClbpQEA0GIR0t+oquqkvdgZhJBOX7rl7N/XZw4AAHc52V1dtw87Gyaks24rVs2/b8s0AAC4ryiH/y9W19kIIZ376vaaf7/bb27VHAAANi5W1/+L3nXuR0hnTRMLncMrStoBAIDBnemWwp90LFmNkM5dJhY6sWL+ogntAAAwMkrhWZWQTq3bb/6D7sq5knYAABiP5RVhfdExR0hvOeEcAACSESXwPxTW201Ib6nuMLgXu8PgAACAdAjrLSakt4xwDgAA2RDWW0hIbwnhHAAAsiWst4iQXrgVPecvtv1YAABA5oT1FhDSC2UgHAAAFOvvu2Hd1m0FEtIL1N3n/MfCOQAAFKu3ddvfC+tlEdILMrHQOVxV1c+qqppp+7EAAICWWOyuqp90wssgpBegOxQuwvnhth8LAABoqXeqqvqPNw7On/EByJuQnrFu3/mL3d5zAACAX3TDuuFymRLSM6XvHAAAWEPdr37j4PxLDlB+hPTMTCx09nfDudJ2AADgXmI1/btK4PMipGdCaTsAANCnX3TDuinwGRDSMzCx0HmiOxhOaTsAANCP5e4U+L939NImpCesu3oe4fyJth8LAABgKM50B8u943Cm6cttPwCpmljoRFn7bwV0AABgiGK21dsTCx1D5RJlJT0x9jwHAADG5J1ur7pV9YRYSU9Id/X8bQEdAAAYg/1W1dNjJT0Bes8BAICGWVVPhJX0hnUnt+s9BwAAmhSr6r/uVvfSICvpDemunv+4qqpjrTwAAABAqmIC/F/bV70ZQnoDJhY68ZTq51VVzbTuzQMAADlY7pa//8LZGi/l7mO2YjicgA4AAKQqKn9/PrHQ+bEzNF5W0sfEcDgAACBT73TL3xedwNET0sdAeTsAAJA55e9jotx9xJS3AwAABVD+PiZW0kfE9HYAAKBQUf7+TdPfR0NIH4FuefvPunsNAgAAlGa5G9TfcWaHS7n7kE0sdGIw3K8FdAAAoGBROfz2xEJH5fCQCelDNLHQeak7IG6qmDcFAACwtp9NLHR+5vgMj3L3IdB/DgAAtJw+9SER0gfUDejK2wEAgLZb7O6nrk99AEL6ALoD4n6tvB0AAKC23A3qZxyO/uhJ79OKAXECOgAAwE11pbGBcv0T0vvQ/cAZEAcAALC6GCj3Y8dm45S7b1D3g/aDrF40AABAM07eODj/Xcd+/YT0DehuLaBsAwAAYP1Mft8AIX0duhPcI6A/kfyLBQAASI+gvk5C+n3YYg0AAGAoIqh/1xZt9yak34OADgAAMFTL3RV1QX0NpruvYcUe6AI6AADAcPS2aJOz1mAlfRUrArot1gAAAIbPivoahPQ7COgAAABjIaivQrn7CgI6AADA2PRK3+2itYKV9C4BHQAAoDEx9f2kwy+k1wR0AACAxrU+qFdCuoAOAACQkOhRP9PmE9LqkC6gAwAAJKX1w+RaG9IFdAAAgCS1Oqi3MqRPLHQimL9dVdVMAi8HAACA27U2qLduC7ZuQP+1gA4AAJCs3vZs+9t2ilq1kr4ioLfuRAMAAGQoVtS/duPg/HJbTl7bVtIFdAAAgHz0VtRbM0usNSF9YqHzMwEdAAAgO/vbFNRbEdK7Af1YAi8FAACAjYug/rM2HLfiQ/rEQucHAjoAAED2nuguwBat6JA+sdCJcP7jBF4KAAAAgzvWXYgtVrHT3buj+t9O4KUAAAAwXN+9cXD+ZInHtMiQPrHQmekG9NZMAAQAAGiZr984OP9OaW+5uHL37sS/nwvoAAAARft1d4G2KCX2pP/cVmsAAADFqxdoS9uaraiQPrHQiSFxhxN4KQAAAIxecVuzFRPSu5Pci57yBwAAwF1ia7aXSjksRQyO605y/7U+dAAAgNb66xsH53+R+5vPPqR3+w9ikntxAwMAAABYt+Wqqr6Z+8T3Esrdfy6gAwAAtF4s4P4s90FyWYd0g+IAAABYIftBctmG9ImFzhMGxQEAAHCHGCSXbVbMsie9u2H92wbFAQAAsIav59ifnutK+s8FdAAAAO7h5zn2p2cX0rt96PsTeCkAAACkaybH/vSsQro+dAAAADYgu/70bHrSu2UKv1XmDgAAwAZl05+e00q6PnQAAAD6kc3+6VmE9G55gv3QAQAA6EfMNXsxhyOXfLn7xEJnf3e7NQAAABjEX984OP+LlI9gDivp2U3jAwAAIEnJl70nHdInFjov2W4NAACAIZlKfSE42XJ3Ze4AAACMSLJl70mG9G75wdvdzecBAABgmJarqvrajYPzy6kd1VTL3X8goAMAADAiyZa9J7eSrswdAACAMUmu7D3FlXTT3AEAABiH5Ka9JxXSTXMHAABgjCKg/zilA55MufvEQid60H+bwEsBAACgXb554+D8mRTecUor6crcAQAAaEIyeTSJkD6x0DlWVdXhBF4KAAAA7TPTbb9uXOPl7t0m/d92ewEAAACgKbF3+mKTRz+FlfQXBXQAAAAS0HjZe6Mr6fZEBwAAIDGN7p3e9Ep6UqPuAQAAaL1Gc2pjIX1iofOEYXEAAAAkptEhco2Uu3eHxUWZ+0wTvz8AAADcw3JVVV9vYohcUyvpPxDQAQAASNRUd8j52I19Jd2WawAAAGQiVtPfGedLbWIl/ccCOgAAABkY+xC5sa6kTyx0Zrqr6AAAAJCDb944OH9mXK9z3CvpjW8MDwAAABsw1hw7tpA+sdA5bMs1AAAAMhNbsh0b10se50p6I5PxAAAAYEBjy7NjCelW0QEAAMjY2FbTx7WSbhUdAACAnP24u6X4SI08pFtFBwAAoAAR0H8w6rcxjpV0q+gAAACU4PujXk0faUi3ig4AAEBBRr6aPuqVdKvoAAAAlGSkq+kjC+lW0QEAAChQBPQnRvW2RrmSbhUdAACAEo0s744kpFtFBwAAoGAj2zd9VCvpVtEBAAAo2Uhy79BD+sRCZ8YqOgAAAIWL1fSh96aPYiXdKjoAAABt8P1hv8cvDfMX666i/3aYvyYAAAAk7Js3Ds6fGdbLG/ZK+kga5wEAACBRTw3zZQ07pA99qR8AAAASdqxbVT4UQwvp3fHzUz45AAAAtMzQqsqHuZJuFR0AAIA2GloeHkpIn1joxJZr+4fxawEAAEBmprrV5QMb1kr6UBvlAQAAIDNDWU0feAu2iYVO9KFfyezgAQAAwLB9/cbB+XcG+TWHsZJu2zUAAAAYwmr6MEK6gXEAAABQVU90q837NlBI7w6MG9p+cAAAAJCxCOhPDPLyB11JNzAOAAAAvjBQtXnfg+O6S/i/7T4pAAAAAG762o2D84v9HItBVtKfENABAADgLn2vpg8S0pW6AwAAwN367kvvK6RPLHRiWNxhJwIAAADuMjOx0OkrqPe7kj7QtDoAAAAo3F/18/b6Den2RgcAAIC1jWclfWKhs9/e6AAAAHBPUxMLnWMbPUT9rKQbGAcAAAD3t+GS935Cun50AAAAuL8nJhY6G9q6fEMhXak7AAAAbMiGFro3upKu1B0AAADWb0Ml7xsN6UrdAQAAYP1Gs5Ku1B0AAAA2bmKhs+6gvpGV9MPOBQAAAGzYukveNxLS9aMDAADAxg13JX1ioRNl7vudCAAAANiwqYmFzrqq09e7kq7UHQAAAPq3rpL39Yb0DY2MBwAAAG5jJR0AAAASsb/bSn5P9w3p3br5KWcVAAAABnLfBfD1rKQrdQcAAIDB3TdfryekK3UHAACAwQ22kj6x0Jmy9RoAAAAMRWzFds+Mfb+VdKvoAAAAMDxP3OtXul9If8yJAAAAgKG5Z862kg4AAADjc8+cvWZI148OAAAAw9fd6nxV91pJt4oOAAAAw9dXSNePDgAAAMO3Zt62kg4AAADjtWZr+b1Cun50AAAAGL4190tfNaTfq4kdAAAAGNj6Q7pSdwAAABipVfvS1wrp+5wLAAAAGJkNraTrRwcAAIDRWV9In1joTFVVNeNEAAAAwOisNg9utZV0q+gAAAAwenfl782r/JaGxgHAkE1tnqwe3Xp7odr0lh3VzJYdq/5G8e+mt3x1ZKdh6dN/q5Y+vbzqvzt/fbFa/uz6bf/s3fqfXRvZ6wGAlrprHtxqId3QOAC4h32TM9UDmybr/+CxbXtu/YePTs5UU91//sDmrdW+rSl3j+1Zx3+ztgjyn3SD/PLn16p3ry3e+m/funqh/usnn1+rzq/45wDAXe5aSf/Snf9gYqHzWz3pALRRb/V6akXAPrRtb/3Xm/9u9VVv7i9W7Xsr92evvlf/tbdif69VfQAo3Y2D87fl8tVC+r/7FABQol4I3zc5Xa9491a+H+3+b5p1c0V+6dbK/HK9Er8kxANQum/eODh/pvcebyt3X22yHADkpBfEowz9gc2T9Yq4VfA8xIOSQ932gaPbD9z1mnsl9rESL8ADUJDbKtnv7ElX5g5AFqIvPIJ3hPBHV/w95fqiBeHufvqzVy/cWoGPMB/BXT88AJkQ0gHIx8qVcWGctay1Ah+BPYJ7hPYYaGdKPQAJemzlS7ozpD/mjAHQlJWr4zGwTa84g4rPUu+hzvPdX6vX+x5l8xHiz3dDPAA0xEo6AM2rw/jkzTB+M5QPtiUYrFev933lZ05wB6BBt+Xw26a7m+wOwChMbZ6sHt06c6tkPcKRFXJSF8E9et2jXD5K5XtbxwHACHz9xsH5d6qVIb072f3XjjYAg4pV8nqFvBvI9ZBTilhlP9sN7FbbARiiv75xcP4X1R3l7lOOMAD9iDDeWymPcG67M0rV63E//tCR+h1GSI/A3ltpF9oB6NP+qqruCun7HU0A1qO3Un70wQNK12m1+LPw5I7D9U8ltAPQv+ne/3NlSH/AAQVgNb1QbqUc7u1eof2XV87Z/g2AtdzqDVzZkx796IcdMgDCzVXyvXrKYYh6Pe2nPj5nEB0AKy3eODj/teqOkP62kneA9ooVwF4wP7r9gE8CjFhvenwvsCuNB2i3Gwfn63y+MqTbfg2gZXp95RHKlbBDs3qr7G9ePlNPjgegdb524+D8Yh3SJxY6Mdn9is8AQNliv/LHtx+oe8sff/CAgW+QqFhl/+XH56pTV87VwV0vO0ArfPPGwfkzvcFxytwBCrVyErsydshDPEBbOYAuwnqUxRs+B1C0elv0zc4xQHl6/eVxg2/oG+QvHrD1HrLVfexXflOHdn3sAEWp90q3kg5QCMEc2uFQvRXinmpu+ljdxx497AI7QDl6IX3KOQXIj2AO7RZ/7vdNH7sV2E98eFpJPEC+9lUrQvoDTiRAHnrD3/SYAytFYH/94Wfrf6KHHSBLt/WkK3cHSFxvxVwwB+5nZQ97XQ7fDe0ApM/gOICE7Zuc6U54fsx2aUBfelPiY1u3Ny+/ZR92gHTVW3r09kl/22o6QBqinD1C+fGH/rLuOQcYtt7AuQjtyuEB0nHj4PyXeiH9350XgGYpZweaoBweIB1COkDDYqX8O91SVKvmQJNiC7cI7P94+Yzt3ACa800hHaABVs2BlMXKem//dQDG6ptfmljoRC/62447wGhFr/nxh45YNQeyESvqJz76b3rXAcanDukxQe7XDjrAaBzatrf6zo7H6nAOkKtYWT/x0WmT4QFGS0gHGJUI5cd3Hqn2bZ1xjIFinL16oe5bj9AOwND9RyEdYIh6Je3f23nEvuZA0XqD5mJ1XSk8wND8UEgHGILoMX9hV0dJO9BKEdZfvjRvKjzA4H64uaqq/Q4kQH+i3zzC+aFtexxBoLWe7G4lGVPhT3x4ujp79T0fBoA+RUifcvAANka/OcDdYlvJ+NG3DtC/zY4dwPpFOI+Vc1uoAawtqoviJ74vowxeWAdYv02bnt4bDZSaKAHWEMPgnvsPT1Tzu5+r/uZP/qL+3wDcX3xfHn3wQPWdmNfxpap6/3f/Uv3uD7935ADWtiikA6yhF87f/LPvV9+e2l995csTDhVAH+L7NL5Hn/nTb1V//OWJ6t3rS8I6wOqWlbsD3ME2agCjEd+pz+/q1N+vP/nwtO3bAFYhpAN0CecA4yGsA6xNSAdaTzgHaIawDnA3IR1oLeEcIA3COsAXhHSglV7o3gwK5wDp6IX12O7S1m1AW33ZmQfaJG783v/6P9Q3gQI6QJqmt+yoXn/42fr7Or63AdpESAda4dC2vfXNXtz0xc0fAOnrhfXfPPqj+nscoA2UuwNFi5u6KG0/tG2PEw2QqX1bZ6p/2vNidfbqhWp26WR1/tqiUwkUS0gHihSrLy90+xoBKEM8cP3Nn/+o7lWPnvWlTy87s0BxhHSgKL2J7dFzDkCZ4gHs4w8eMAkeKJKedKAYcdN28es/EdABWqA3CT5W1lVNASUR0oHsRd95DBWK4UImtgO0S2+43D/teclwOaAIQjqQrbgxm9/9XD1MKIYKAdBe0a8e14P6ge1mD2yBfAnpQJZiKFysnh/dfsAJBOCWXuvT8Z1HHBQgS0I6kJXefufRh6i0HYDVxPVhbvpYfb1QAg/kRkgHsrCytD3+HgDuJ64XSuCB3AjpQPKiZFFpOwD9UgIP5MQ+6UCy9k3OVD99+FlD4QAYWK8E/uj2b1SzSyer89cWHVQgSVbSgeRESeLczLF671sBHYBhiinwcX2JAaRK4IEUCelAUuo9z//8R9Xxh5QkAjA6MYA0rjcGywGpEdKBJMRqhsFwAIxTb7BcVG9ZVQdSIaQDjTv64IF6oI/BcAA0Iaq3YlU9rkcATRPSgcb0Vs/nH3nOnucANKre6vOR5+rrklV1oElCOtAIq+cApCiuS/X1yao60BAhHRgrq+cApC6uT3Gd0qsONEFIB8YmJuhaPQcgF71edRPggXES0oGR6+17HhN0rZ4DkJOVE+ABxkFIB0Zq3+SMfc8ByF69qv7oj+rrGsAoCenAyLywq1MHdPueA1CCfVu7D553evAMjI6QDgzdzdLAl6rnd3UcXACKMzd9rL7OGSoHjIKQDgxVbFkT5YCHtu1xYAEoVlznYhiqoXLAsAnpwNDEUB1bqwHQFnG9M1QOGDYhHRhYlLfH6rnhcAC0UW+onBkswDAI6cBAeuXtMUwHANqqHir36I/q6yLAIIR0oG/K2wHgC3E9jOui8ndgEJsdPWCjopxvfvdzVs8BYBVR/h7XyM77r1bLn11ziIANsZIObEhMsVXeDgD3Zvo70C8hHVi3F3Z16im2ytsB4P5609+P7zRYFVg/IR24r6nNk3V5+/O7Og4WAGzQ3PSx6vWHn62vpwD3I6QD97Rvcqb61Z4Xq6PbTasFgH49ueNwfT21TRtwP0I6sKbYRiZuKPSfA8Dgetu06VMH7kVIB1YV/XO2VwOA4er1qcfKOsBqhHTgNtEvF31z0T8HAIxGXGvjB+BOQjpwSwT0X3m6DwBjEdfbKH83UA5YSUgHajEgLvZz1X8OAOMT1916/suk6y9wk5AO3BoQp/8cAMavF9QNlAMqIR2IUjsD4gCgWQbKAT2bHQlorxhY42YAANIR1+aZLTuqly/NOyvQUlbSoYV6E9wFdABIz/O7Oia/Q4tZSYeW6U1wNyAOANIVD9Knt3y16rz/arX82TVnClrESjq0yPSWHQI6AGTi0LY9Nwe72qINWkVIh5aIrV1iL1YBHQDyEdft3/z5j2zRBi0ipEMLxIXdFmsAkKdblXCCOrSCkA6Fswc6AOQvruOCOrSDkA4Fswc6AJQjrudR+m53FiibkA6Figu47VsAoDy2UYWyCelQIAEdAMomqEO57JMOhXlhV6d6flfHaQWAwvUeyL95+YxTDQUR0qEgnqoDQLsI6lAe5e5QCAEdANop7gHmZo45+1AIIR0KIKADQLsdf+iIeTRQCCEdMiegAwCVwbFQDCEdMiagAwArCeqQPyEdMiWgAwCrifsDPeqQLyEdMiSgAwD3Ej3q7hUgT0I6ZCb2QXfRBQDux0N9yJOQDhmJC+3zuzpOGQCwLoI65EdIh0wYBAMA9ENQh7wI6ZABAR0AGISgDvkQ0iFxAjoAMAxxP7FvcsaxhMQJ6ZCwuJDOzTzlFAEAQ/GrPS8K6pA4IR0SFRfQuJBObZp0igCAoYj7CkEd0iakQ4Kmt+wQ0AGAkYj7i/lHnqumNrvPgBQJ6ZCYuGDO735OQAcARubWgoCgDskR0iEhcaGsS9C2KkEDAEYr7jdiRR1Ii5AOCZmbfkpABwDG5tC2PXaRgcQI6ZAI+5cCAE2I+48XdnUce0iEkA4JiIujgA4ANOX5XR33IpAIIR0advTBA8rMAIDGxf2IrdmgeUI6NCguhD8V0AGARNhDHZonpEND6q3WHrHVGgCQjrgviQUEW7NBc4R0aEg8qY49SgEAUmJrNmiWkA4NqHu+bLUGACQqtmabmznm9EADhHQYM5PcAYAcHH/oiHsWaICQDmN0aNtek9wBgGzMzTxlkByMmZAOYxL95/O7Zx1uACAbMUiuHnRrkByMjZAOYzK/2yR3ACA/9UKDQXIwNkI6jIFBcQBAzgySg/ER0mHEDIoDAEoQg+SOPnjAuYQRE9JhhGLQSgxcAQAowU+jOtAgORgpIR1GJAasxIVMHzoAUIq4r6nvbwySg5ER0mFEfqoPHQAoUNzfzE2rFIRREdJhBI7vPFId3a5nCwAok5k7MDpCOgxZ9Gk9v6vjsAIARYu5O7E9GzBcQjoMkT50AKAt4n5nfrf902HYhHQYolhB14cOALRF3Z9u/3QYKiEdhiT2DY39QwEA2iTufw5t2+ucw5AI6TAEvTJ3AIA2mt89a1s2GBIhHYZg/pHn9KEDAK3V2z8dGJyQDgOK7dYObdvjMAIArRbbz9qWDQYnpMMAbLcGAPAF27LB4IR0GIDt1gAAvhD3Ra8//LeOCAxASIc+vWC7NQCAu0QbYLQDAv0R0qEPytwBANYW90nK3qE/Qjr0wfRSAIC1KXuH/gnpsEHK3AEA7k/ZO/RHSIcNiLItZe4AAOuj7B02TkiHDVC2BQCwfsreYeOEdFinKNeKsi0AANYv7p+OPnjAEYN1EtJhHaY2TypzBwDoUwzdjfsp4P6EdFiH+sKyyYUFAKAfcR9lwQPWR0iH+zi0bW91dLsSLQCAQRx/6Eh9XwXcm5AO9/G6PdEBAIZibuYpBxLuQ0iHe3jBtiEAAEOzb+uMvdPhPoR0WEOE8++5iAAADFX0phsiB2sT0mENczPHDIsDABiyuL+am1b2DmsR0mEVhsUBAIzOkzsOGyIHaxDSYRWGmgAAjNYLtmSDVQnpcIcYZhJDTQAAGJ1D2/bUK+rA7YR0WCGGmDzvqS4AwFi8YIgc3EVIhxWOP3TEsDgAgDGJ3XTi/gv4gpAOXXGRsIoOADBeseWt1XT4gpAOXYaXAACMny3Z4HZCOlRVtW9yxuASAICGxH1YVDUCQjrU5qaPORAAAA1S1Qg3Cem03qFte+stQAAAaE6spsd9GbSdkE7reWoLAJAG92UgpNNyVtEBANIR92VW02k7IZ1We/3hZ9t+CAAAkmI1nbYT0mktU0QBANJjNZ22E9JpLU9pAQDS5D6NNhPSaSWr6AAA6bKaTpsJ6bSSp7MAAGlzv0ZbCem0TjyVtYoOAJA2q+m0lZBO63gqCwCQB/dttJGQTqvYFx0AIB9x37ZvcsYZo1WEdFrF01gAgLwcf+iIM0arCOm0RjyFtYoOAJAXu/LQNkI6reEpLABAnlRD0iZCOq0QT1/jKSwAAPl5/MED1dTmSWeOVhDSaYXvCOgAANma2jSpKpLWENIpXjx1/d5OX+oAADlTFUlbCOkU7/HtB+qnrwAA5Ev7Im0hpFM8g0YAAMqghZE2ENIp2qFte23ZAQBQiNhON7bVhZIJ6RTtuF50AICiGCBH6YR0ihUr6Ee3H3CCAQAKEn3ptmOjZEI6xdKzBABQpid3PObMUiwhnWKZ/gkAUKbjD/2lM0uxhHSKdPTBAwbGAQAUKu7zYkAwlEhIp0hW0QEAyvYdJe8USkinOAbGAQCUzwA5SiWkU5wodQcAoHyPW5ihQEI6xTFIBACgHY7vtGc65RHSKcq+yRkD4wAAWmLfVvd+lEdIpygGxgEAtMvxnaooKYuQTlGeNOUTAKBVDAymNEI6xYiBcVObTPgEAGiTKHePlkcohZBOMTxFBQBoJy2PlGSzs0kpHrf1WpLOXr0wtpf16OS0aopELH16uf4Zh1hBaXJoUJvea058BhmnBzZvrQeY0ZxoeZxdPOkMUAQhnSIodU/PK5fmqxMfna6WP7s21tcWT9LnZp7yeWhIPJR5+dJ8dfbqe2N9AVHmOFETYEMAACAASURBVDd9rDq0bc/Yfs/z1xer2cU3WvFec9LUZ/DQtr3VC7s6rfgMsrp4UDM3c0xlX0Piuh/3g6c+PtfK909ZNm16em/UhqgPIWvP/Ycn9CIlYvnza9Xj//yfqzcvn6l+94ffj/1FvXt9sZr/3/+9OvTA3uqhP5pK9CiVKc555/1XG1nR+9ffL9e//8yY+hJPXTlX/c37c9XF/+//Hfnvdadxv9ecNPkZjN9znOclfq/H//k/WUFPyCefX6+vP3FOjqrua8Snf/h9/f0MmVvUk04RlLqn45UGVrDuFDdIz3zwWrLHqESxovd0Asc8XsOoWyx6n69xV4ncKd6rm9EvxHlv02dwdumNkf4e9C8eoPiz2Qz3g5RCSCd7St3TETeOJz48ncTrOX9tsb5RYjyi5DYVT3/wDyN9JVFK3XRA74mHBVZSb4rzkopRv5aUPoOsTm90M+J+MFpPIHdCOtnT+5WO1ELxP15+K4FXUb5ocUipJzZCa6zsj8ovE1ohi6AW5d1tF+c8pc9gvJZRPjzxADJ9Nz+T4xucyhe0GlACIZ3sKW1KxyiDUT8MUxqPd68tJfeaPvns+kh+3fiMp7aCGVUjs0vtXrVLsZpgVK9J8MuHa1AzLN5QAiGdrEVJk1L3dCyPKBhBKkYV/gcVbSZ6YAFuTtk3VJPcCelkTUkTwE360wFusppO7oR0suZLGOCmKMNPYbo5QNO0QpI7IZ1sRTlT/ABwU/TAvpLQlHOAJuzbOuMekawJ6WRLqTvA3WJ7LsPFgLazFRs5E9LJli9fgNXFtmyxNR5AW1nMIWdCOtnSjw6wunr/9Itzjg7QWoe27XHyyZaQTpasogPcm/50oM1ii15bsZErIZ0sKWECuL/oTz9/fdGRAlpJ1SW5EtLJkhImgPXpXNSfDrSTyktyJaSTnanNk/XWGgDc39Knl6tn7J8OtJBFHXIlpJMdX7gAG3Pq43PViY9OO2pA61hNJ0dCOtnxZQuwcbOLJ/WnA63zmMUdMiSkkx0r6QD90Z8OtI3FHXIkpJMV/egA/dOfDrSNxR1yJKSTlUcFdICBRH/6m5fPOIhAa1hNJzdCOlnRVwQwuNmlN/SnA62xb3LaySYrQjpZ8SQUYHDLn12ry971pwNt4P6R3AjpZEVfEcBwnL+2WM0uvuFoAsVz/0huhHSysW9SPzrAMEVvuv50oHRTmyar6S07nGeyIaSTDUPjAIZPfzrQBhZ7yImQTjZ8uQIMX68/HaBktvAlJ0I62fDlCjAadX/60klHFyiW4XHkREgnG4Z+AIzOiQ9PV6eunHOEgSI9ahs2MiKkkwWl7gCjF2XvS59edqSB4hgeR06EdLJgaBzA6EV/euf9Vx1pGALl1emx6EMuhHSyMOPJJ8BY6E+HwcWKrTa99JhvRC6EdLLgaTTA+OhPh8HMzRxzBBP0qJV0MiGkkwXDPgDGK/rTlz+/5qjDBh3feaQ6uv2Aw5YgPenkQkgneVObJ+thHwCMT92ffnHOEYd1in7n+d3PVXPTVtFTpdydXGx2pkidoXEAzTh79b3qlUvz1fO7Os4Aa3pyx+HqOzsOt/oAxQqtVdo8xMOUmL0BKRPSSZ6LHkBzXr40X88FMQSLtcwYkkZG4r5SSCd1yt1JnsnuAM2Kbdn0pwMlUPJODoR0kmeyO0Cz9KcDpVChSQ6EdJL3wOatThJAw3r96QA5m97yVeeP5AnpJE9ZEkAaoj/9/HW9nEC+bOtLDoR0kqYkCSAtnYv604F82daXHAjpJE1JEkBalj69XD3zwWvOCpAt845InZBO0qykA6Tn1MfnqhMfnXZmAGAEhHSSZvs1gDTNLp7Unw5k6TH7+pM4IZ2kWUkHSJf+dAAYPiGdpOlJB0hX9KfPLr7hDAFZ0ZNO6oR0AKBvb14+U/8AAMMhpJO0Q3qGAJI3u/SG/nQgG9opSZ2QDgAMZPmza/W2bPrTgRwI6aROSCdZvkAB8nH+2qL+dAAYAiGdZBkaB5AX/elALgyPI2VCOgAwNNGfHlPfAYD+COkkS7k7QH6iP73z/qvOHAD0SUgnWTNCOkCW6v70pZNOHpCsfZPTTg7JEtIBgKE78eHp6tSVcw4skKSpTZNODMkS0gGAkYht2fSnA8DGCOkky9RNgLzpTweAjRPSAYCR0Z8OpMhiECnb7OwAAKMU/elHt3+jOrRtj+NcoLeuXqiqS/Otff+xG830lq/6fANDI6QDACMXZe8Xv/4Tw5oKdPbqe/VP20VYf2FXp3pyx+G2HwpgQMrdSdYDm7c6OQCFqPvTL845nRQrhiQ+/cFr9Q/AIIR0krVv64yTA1CQWG19pcVl0bTDm5fPVCc+Ou1sA30T0gGAsXn50nx1NnqYoWAeRqUv2hMgVUI6ADBW0Z++/Pk1B51iRXuHh1FpE9JJmZAOABk7vvNIdjeb+tNpA8P0gH4J6QCQsZiW/vrDf5vdG4gAo28XAO4mpANA5mJ/5tj6KTeziyer89cXffwAYAUhHQAK8PyuTnVo297s3kjnov50AFhJSAeAQszvnq2mNk9m9WZib+ln7CsNALcI6QBQiOhPn3/kuezezKmPz+lPB4AuIR0ACqI/HQDyJqQDQGGiP33f5Ex2b0p/OgAI6QBQpCh7z7E/fXbxjQReCQA0R0gHgAJNb9lR/fThZ7N7Y29ePlP/AEBbCekAUKij2w9Ux3ceye7NzS69oT8dgNYS0gGgYHPTx7LrT1/+7Fq9LZv+dADaSEgHgMLl2J9+/tqi/nQAWklIB4DC6U8HuF0MqoRUCekA0ALRn/7kjsPZvdHoT3czDQyb7xVSJqSTrLNXLzg5AEM0N/NUlv3pnfdfTeCVAMB4COkA0BJTmybrsvcs+9OXTibwSgBg9IR0AGiRfVtnqrnpp7J7wyc+PF2dunIugVcCAKMlpANAy0Rveo796bEtmz5SAEonpANAC+lPB9rs7NX3nH+SJaSTLF+eAKPT60/PTfSnv3Jp3icDgGIJ6QDQUnV/+syx7N78y5fm7QACQLGEdABoseMPHamOPngguwMQZe/Ln19L4JUAOfL9QcqEdJK1aDgQwFhE2fv0lh1ZHey6P/3iXAKvBMjR+WtLzhvJEtJJlgm+AOMR/enzu5/L7mjH7BL96QCURkgHADLvTzdolPQ8sHnSWUnYJ8rdSZiQTrKWPv03JwdgjHLtT3/ZajoJOrRtj9OSsNgpAlIlpJMs5e4A4xf96VNWAGEgMeMhqlMA+iGkAwC31P3pj+TXnw4pybF1pE0sBJE6IZ2k2QcXYPyiTPeFXR1HHvrw+sPPVke359c20iZCOqkT0gGAuzy/q1Md2rbXgYF1ij8v/7TnperJHYcdssTZI53UbXaGSNn564sGrwA0ZH73bLX77e/Ve5LDWiKUfqflwfTRyem6VYQ8vGtoHIkT0knaJ24MARrT60//1oWXnATWNLNlhwfqAEOk3J2kLeoZAmiU/nSgNG+ZeUTihHSSZrAHQPOiP33fpO2kAGAchHSStvTpvzlBAAmIsnf7pwMlOHv1PeeRpAnpJM1KOkAaprfsqH768LPOBpA1k93JgZBO8mLCOwDNi72fj+884kwA2Xr32pKTR/KEdJL3yWfXnSSARMxNH9OfDmRLKyU5ENJJnr4hgLToTwdypZWSHAjpJM82bABpif70uemnnBUgO7ZfIwdCOsnzxBMgPU/uOFz/AOTkE4PjyICQTvLeNTgOIElzM0/pTweycv6a+0rSJ6STvOXPrtkuAyBBU5sm623Z9KcDObBjELkQ0smC7TIA0rRv64z+dCAL71pFJxNCOlnw5BMgXfrTgRyYc0QuhHSyoH8IIG3Rnx5T3wFSZbI7uRDSyYLhcQBpi/70+d3POUtAstxPkgshnSxYSQdIX92fPnPMmQKSE6XuMYwYciCkkw196QDpO/7QkerogwecKSAp7iPJiZBONkzkBMhDbMumPx1IiftIciKkkw1PQAHyoD8dSI2hceRESCcbZ325AmRDfzqQEkPjyImQTjYMjwPIS/SnH9q211kDGhXVmIbGkRMhnaxYTQfIy/zu2Wpq86SzBjTG/SO52eyMkZOzV9+rDm3b45yxbq9cmm/1wXpg82T9ZyZKj6EJdX/6I89V37rwkuNfqLrXt+XftY9OztTftfF5Jz2qMcmNkE5WDI9jo15u+Y1jT5Qcz808JazTiAgvL+zq+PNYqHiAHj9tFxUj0eLx/K5O2w9Fcnw+yY1yd7KiXAn6Ezco377wQw+6aEwEF/3plCx6nuNB1NMfvOY8J2Tp08v1D+RESCcrcQEUMqA/8ecngvry54bn0Az96bTBm5fPtL7VKiVW0cmRkE523tVXBH2LoP6TD087gDSi158OpTvxke/ZVNgfnRwJ6WTHly0M5tSVc44gjYn+9OM7jzgBFC0eiGrRS4OVdHIkpJMdX7YwGFNuadrc9LFq36QhhpTN/Urz9KOTKyGd7MSXrb50gLxF2bv+dGCUPCghV0I6WVJCBpC36S07qp8+/KyzCIyM9i5yJaSTJU9GAfJ3dPsB/enAyFjUIVdCOlnypQtQBv3pwCjEvWIM8IMcCelkydRUgHLoTweG7dSV3zimZEtIJ1u+fAHKEP3pc9NPOZvA0FjMIWdCOtny5QtQjid3HK5/AAZV7wRku1EyJqSTrfjytfclQDnmZp7Snw4MzFR3ciekkzVT3gHKMbVpst6WTX86MAj3h+ROSCdrnpQClGXf1hn96UDflj+/Vp362P0heRPSyZovYYDy6E8H+vVL94YUQEgne1bTAcoT/ekx9R1gI9wXUgIhnexZTQcoT/Snz+9+zpkF1k2pO6UQ0sneLz0xBShS3Z8+c8zJBdZFqTulENLJ3vJn15Q2ARTq+ENHqqMPHnB6gftyP0gphHSKoLQJoFyxLZv+dOBelLpTEiGdIih5ByiX/nTgfpS6UxIhnSIoeQcoW/Snv7Cr4ywDqzrx0WkHhmII6RRDiRNA2Z7f1akObdvrLAO3Wfr0cnX+2qKDQjGEdIqh5B2gfPO7Z6upzZPONHDLm5fPOBgURUinGFHy7ksaoGx1f/oj+tOBL/yj+z8KI6RTFH3pAOU7tG2P/nSgdvbqhbrcHUoipFOU6EuPLTgAKJv+dKCyik6hhHSK8+blt5xUgBbQnw7tFgszWh0pkZBOcXxZN2dq89a2vnVaYnrLDqc6IdGf/tOHn23Ve37A92w2HvAAaeQszFAqIZ3ixBYc56/bhqMJSk/zcPTBA0N9nY9OTif3vkcVpuPXTW3l9vEhn8/cHN1+oDq+80hyr3pUfy5iv3jVA3mI2QmM1okP/5sjTJGEdIp04sPTTmwD4maZ9p2nWM18csfhof6ag4iHRaNc8T7+UDqBMN5nhLa2m5s+Vu2bTOc4xGcw/lyMyuO+a5Pnz+boGRhHyYR0ihR7phsgN35xU2LictoiPIwiUMd5T2F1L17D3MxTI/09vrfzSDIrma8//LcJvIo0xLZsbfkMxq9vNT1t/myOnoFxlExIp0ixZ/ovP7YdWxNi4nJKq6p8IVYaY9DWKMQDml/tebHR4FCHo+mnRr56FSukTb/Xqg4BzyqnXSGVz2C8hrZ8BlmdP5ujFyvoZhBRsk2bnt4bd9PuqCnO0o3L1TN/+i0ntgHR8xyB8F9//4lStAREePk/d/5l9eaf/aD6ypcnRvaCHvqjqepv/uQvquXPr1f/68bl6nd/+P1Y3nwElc6f/EX1f/3ZD8Y2FyHea3y//PGXJ6p3ry+N7b1W3T9fcS6/PbV/bL9nLnrn5dN//331/u/+pZHP4O4//j/G8nv23mt8z47zzxtr82dzfH7y0em63B0KtfiliYXOS1VVvegMU6LfPPojPWEJcCFtTgyvGmVv7L3EA5pRP6SJBxApTFwfx3uNqd6+zzbGZ5Bx8Gdz/P70f3y3rpqEQp3Z7MxSshgg93rLtudJkbK/dkolvIxDm95rTnwGoTxR5i6gUzo96RSt/iI3QA4AoAgnPrKDD+UT0ineT2zHBgCQvWifO39t0YmkeEI6xbNFBwBA/l6+NO8s0gpCOsWzTQcAQN7ifu7s1fecRVpBSKcV/vHyW040AECmrKLTJkI6rRBPXm0DBgCQH1WRtI2QTmvoTQcAyI9VdNpGSKc14glsPIkFACAPVtFpIyGdVvEkFgAgHwI6bSSk0ypW0wEA8rD8+bXqxEennS1aR0indTyRBQBI308+PF0tf3bNmaJ1hHRaJ57IxpNZAADSZBWdNhPSaZ14IhtPZgEASNMrl+atotNaQjqtZDUdACBNMT/ohAUVWkxIp5WspgMApMluPLSdkE5rWU0HAEiLfdFBSKfFrKYDAKTFKjoI6bSc1XQAgDScvXrBKjqtVwnptJ3VdACANFhFh5uEdFovLgjR/wQAQDNiFf3s1fccfVqvEtLhJk9uAQCa8/QH/+DoQ5eQDlVV9z9ZTQcAGL+YEeQ+DL4gpEPX0x+85lAAAIxRDPB9RUUj3EZIh67og4p+KAAAxiMCegzyBb4gpMMKs0snHQ4AgDGIEvcTdtmBuwjpsML5a4v25wQAGAOthrA6IR3uEJPeoz8KAIDROHXlnC3XYA1COtwhSq9+ovQKAGAkYjFkdlGLIaxFSIdVxGq6rUAAAIYvFkPcZ8HahHRYgyFyAADDdf76Yr0YAqxNSIc1nPr4nC3ZAACGaHbxDYcT7kNIh3t4+oN/cHgAAIYgdtAxLA7uT0iHe4h+qVeUZAEADKQeFrdkFR3WQ0iH+zjxkeEmAACDeOaD16rlz2xxC+shpMN9xAXl6Q9ec5gAAPoQM35i1g+wPkI6rEP0T5264uICALARUeZuxg9sjJAO61SXaX2uTAsAYL1ito+2QdgYIR3WKcreDZEDAFifKHM/8eFpRws2SEiHDYgLjb3TAQDuTZk79E9Ihw2KC46ydwCAtSlzh/4J6bBB9k4HAFibMncYjJAOfVD2DgBwN2XuMDghHfqk7B0A4Hazi28oc4cBCenQJ2XvAABfOHXlXPXm5TOOCAxISIcBKHsHALhZ5v7MB685EjAEQjoMqPP+q8reAYBW61ycq5Y/cz8EwyCkw4DiguTJMQDQVic+isrC95x/GBIhHYbg1Md6sACA9jl/fbGaXTzpzMMQCekwJLNLppkCAO2hDx1GQ0iHIYmy9+hPBwBog9hu7fy1RecahkxIhyGKC5Vt2QCA0kWbn1Y/GA0hHYbs5UvztmUDAIpV96EvveEEw4gI6TACtmUDAErU60O33RqMjpAOI1D3p1+cc2gBgKLoQ4fRE9JhRGK/UP3pAEAp9KHDeAjpMELRn37qyjmHGADImj50GB8hHUYs+rbsnw4A5EofOoyXkA4jZv90ACBnEdD1ocP4COkwBnFhe/qD1xxqACArMV/n1Mda92CchHQYE8NWAICcnL16oZ6vA4yXkA5jFKvpMXgFACBlMU9Hux40Q0iHMfv2hR8aJAcAJCsGxUVANygOmiGkw5j1BsnFBRAAIDUGxUGzhHRoQFz4ZhftNQoApMWgOGiekA4NiSFyrxjGAgAkIu5NDIqD5gnp0KC4EJr4DgA0LQbbzi6p8oMUCOnQsLggmvgOADQl5uTEYFuD4iANQjo0LC6IJr4DAE0Q0CE9QjokwMR3AKAJMcjWJHdIi5AOiYgLZDzJBgAYh9mlk2bjQIKEdEhIBPWnP3jNKQEARirC+YkPTzvIkCAhHRITF01BHQAYlbNXL7jXgIQJ6ZCg+un2R55uAwDDFTvKxBwcIF1COiRqdlGfGAAwPCa5Qx6EdEhYlKIJ6gDAoAR0yIeQDombXXqjLk0DAOhXBHRbrUEehHRIXDzxri+sgjoA0IeozBPQIR9COmRAUAcA+qF1DvIjpEMmBHUAYCNipxgBHfIjpENGBHUAYD0inMdOMUB+hHTITAT1zsVX6ymtAAB3iof5UeYO5ElIhwwtfXr55jYqgjoAsEIE9LhHAPIlpEOmYkqroA4A9NgLHcogpEPGBHUAoBLQoShCOmROUAeAdusFdHuhQxmEdChAL6ib+g4A7fPMB68J6FAQIR0KIagDQPvEFPdTH59z5qEgQjoUxD7qANAeEdBjP3SgLEI6FEZQB4DyzS6dFNChUEI6FEhQB4ByRTg/8eFpZxgKJaRDoXpB3VN2AChHXNejzB0ol5AOBYugrl8NAMogoEM7COnQAoI6AORNQIf2ENKhJeLC7uIOAPkR0KFdhHRoERd5AMjLqSvnXLuhZYR0aJkI6t+68MNq+fNrTj0AJCx2aXlGQIfWEdKhhc5efa+e/C6oA0CaIqDX1+rPXKuhbYR0aKnz1xar3W9/z17qAJAYAR3aTUiHFuvtpR79bgBA8wR0QEiHloubgM7FV23RBgANE9CBSkgHemzRBgDNEdCBHiEduMXkdwAYPwEdWElIB27Tm/xuoBwAjF7MhRHQgZWEdOAuMfndQDkAGK2oYIu5MAI6sJKQDqyqN1DulUvzDhAADFkEdLNggNUI6cA9vXxpvuq8/6o+dQAYEgEduBchHbivUx+f06cOAEMgoAP3I6QD66JPHQAGI6AD6yGkA+vW61OfXTrpoAHABpz46LSADqyLkA5s2IkPT1ff+J9/p08dANYhwvnsogfcwPoI6UBfovx999vfq85eveAAAsAaIqBHmTvAegnpQN+i/P1bF16yTRsArEJAB/ohpAMDi23avnXhh9XSp5cdTABaL9rBYvtSAR3oh5AODMXZq+/VfeqmvwPQZhHQ691QPnY9BPojpANDs3L6u6FyALRNL6DH3BaAfgnpwNDF9Pf6JuW6mxQA2iGueQI6MAxCOjAScZPyjXf/rt4XFgBKJqADwySkAyMV+8IaKgdAqXoBPVq+AIZBSAdGzlA5AEoU09ujakxAB4ZJSAfGojdULrakMVQOgNxFQI990AGGTUgHxiq2pNn99vesqgOQrdjFREAHRkVIB8bOqjoAuYpwHruYAIyKkA40xqo6ALmIh8oxCDXK3AFGSUgHGmVVHYDUxfUpJrjHIFSAURPSgST0VtWtUACQkthiLSa42wMdGBchHUhGrKpHr5991QFIQW8PdNckYJyEdCA5vX3VX7k07+QA0Ah7oANNEdKBJMVN0cuX5qtH3v7b6uzVC04SAGNz4qPTtlgDGiOkA0mLEsNvXXipvlkyWA6AUYvrzeziSccZaIyQDmQhyg5jsFysbgDAsNliDUiFkA5kI0rgY3Uj+tWVwAMwLLZYA1IipAPZiW1wlMADMAwxwT0qtWyxBqRCSAey1SuBNwUegH6cunKuXkE3wR1IiZAOZG3lFPi42QKA9YgZJ52LrwroQHKEdKAIMQU+brZi6E+ULgLAWkxwB1ImpANFiaE/33j37+obsAjuANBjgjuQAyEdKFLcgMUU+OhXN1wOgKiyMsEdyIGQDhSr169uuBxAu8W2nRHQTXAHciCkA8VbOVxOiSNAu8T3fmzbaUAckAshHWiN6FGPXnVhHaAd4js/fgByIqQDrdML69+qexMv+AAAFMaAOCBnQjrQWjE8KEoghXWAchgQB+RuszMItN3NsP5edWjb3uqFXZ3q0LY9bT8kAFmKB66d91/Vfw5kzUo6QJeVdYB8nfjotAFxQBGspAPcwco6QF5izoj+c6AUQjrAGnphfXrLjjqsP7njsEMFkJAYEGf/c6A0yt0B7sPWbQDpiQFxu9/+noAOFEdIB1inXlj/0//x3eqVS/P1Cg4A4xcPTL/x7t/pPweKJKQDbFDcFL58ab5ewYnQHuEdgPGYXTpZf/cClGrTpqf3RpOlRkuADfrdH35fvXt9sZ4oHEF9avNk3b8OwPBF9dLj//yfq/n//d8dXaBkiwbHAQxBlF7Gz77Jmer4Q0cMmQMYoug/71x8VeUS0ArK3QGGKAYY9YbM6VsHGFw8AI0J7gI60BbK3QFG4JPPr1dnr16o5v7lvyqFB+hT9J8//7/+77q9CKAllLsDjNqdpfCPP3igmto06bgDrCGqkDoX56qzV99ziIDWEdIBxqRXCj+1NFk9vv1AdXznkWrf1hmHH2CF6D+P8nbbqwFtpdwdYMx6U+F/+q//VP3yyrnqK1/+o2r6Kzuqr3x5wqkAWi2qjh7/5/+kvB1oM+XuAE26c3X9OzsOV4e27XFOgNaJ78II6QBtJ6QDJCDKOnu96zFg7vjOv6yObj9g2BxQvBiu2Xn/1fqhJQDK3QGSE5Phf7X8TnXio9P1hPgvVZVyeKBI8R337f/H9moAKyh3B0hZTDaOn145/NEHD9Qr7AC5e+XSfPXypXnnEeAOQjpABlaWw8ee66bDA7mK7dWe+eC16tTH55xDgFUI6QCZubN/PVbXn9xxWGAHkhfbq3Uuvqq8HeAevjSx0HmpqqoXHSSAvAnsQMriweLs0hv2Pwe4tzNCOkCBBHYgFVHePrv4hu3VANZHSAcoXa+H3dA5YNxsrwawYWf0pAMUbmUPe+iF9ccfPFBNbZp0+oGROHXlXD0gTnk7wMYI6QAtExOV66nKH1TVvsmZW4FdWTwwLLNLJ6sTH552PAH6IKQDtFiUoMZP7FXcK4t/bNseq+xAX6L/vHNxrjp79T0HEKBPQjoAtdvK4rur7Ie27amObv9G/VeAezl79ULdf668HWAwQjoAq+qtsvdKVqOX/dC2vXVgVxoPrPTKpfm6IgeAwQnpAKzLrV727sT4COtCO7Sb8naA4RPSAdiwKGddLbRHWO8Fd6BsytsBRkNIB2Bgt4f2myWvEdb3TU7fCu0G0UE5lLcDjI6QDsBIRPlr/PR62qe37OgOo9vbXXG32g65Ud4OMHpCOgBjsfTp5fqnVyIfIrQ/unWm/qvgDmlT3g4wHkI6AI3pTZB/8/IXr+DO4P7o5LRSeWiY8naA8RHSAUjKasE9SuWnt3y1emzbnlt/b9UdRk95+//f3v2DyH2eeQB/HZsxROCsDxxyELDM06gBHgAAFnlJREFUFQc+iDaFA9Mk6yJXGJKTiimDLVCa40IsEOmCbZwuB5ZRrOaKrM7lFNkooOIar9xMocK7DjbkYMksGCxOYE8MMmS4cMc7+441Gu2/mfn9/30+IBwivPub97chfPd53ucBKJ6QDkDlTVvl54PCYeFd5R2yob0doBxCOgC1dVR4D2m6/NoTX5+0zAvwsJgr+5tfDX0EoFhCOgCNNA3us4PqwtyU+elud+BA/KVXrJ7HKycAlENIB6BV5qfMrz1xJvzo6RcmLfM/+rsXVNpprZuf3wk/3buuvR2gZEI6AK0WA8m797Ynf8LewXT5nzyzEX789AuTqjs0XRwOd2V44+B/AwCU7rHOoPd6COE1rwIAHhYD+8++9ZIKO421++VwUj3X3g5QGdsq6QBwhBhcLu1dD2v7By3xP/v7l9xhpzGu3b012X+uvR2gWoR0ADjBbEt8HDj3y2/37GmntmJ7e6yezw9VBKAahHQAWECcGv/Djz8S1qmluPv80t47k+GJAFTT17wXAFjcQVh/fdIOHyuTUHWxtT3+zAroANUmpAPACmIL/D9+8G+T9VVQRTGUf++PvwhvftL3fgBqQEgHgBXFO+u9P/16UlWHKom/PIoB3fR2gPoQ0gEgI7GqHgOR9nfKFn8G4y+N4i+PTG8HqBchHQAyFCuW//zxG4I6pYm7z7/34S8mvzQCoH6EdADIWAzqvT/9u2OlcHE4XAzohsMB1JeQDgA5iNPfr+xvOloKEUP5Dz9+w3A4gAYQ0gEgJ9c+vTXZSw15ms5CiL8YAqD+hHQAyJHKJnmJcw96/32wVcBwOIDmENIBIEexuhkHeUGWYodGvHt+8zP7+QGaRkgHgJyZsk2W4qyDH378uuFwAA0lpANAzlQ7ycJktdoffzGZdQBAcz3h3QJAvmLFM/559slnnDRLuXb31mS9mrvnAM2nkg4ABTB5m2VMV6tdGW4K6AAtIaQDQAEMj2NRNz+/Y7UaQAtpdweAAuze33fMnEpcrfbTvetmGQC0lJAOAAX4UCWdU4ir1S7tvWNyO0CLCekAUAD3iTlOrJ7HwXAmtwMgpANAQUx45zBxXkFsb9+9r9sCACEdAAojpDMvVs/f/KTvXAD4ipAOAFAw1XMAjiKkAwAU6NrdW5O95wBwGCEdAKAA8brDpb3r9p4DcCwhHQAgZ7F6Hu+fm/IPwEmEdACAnKieA7AoIR0AIAfv3tsOV/ZvqJ4DsBAhHQAgQ6O/3Z9Mbr/52R3HCsDChHQAgIzc/PzOJKCrngOwLCEdAGBFqucAZEVIBwBYgeo5AFkS0gGgIM8++YyjbhDVcwDyIKQDQEGE9OZQPQcgL0I6AMApqZ4DkDchHQAKoIpef6rnABRBSAeAAjz75Dcdc02pngNQJCEdAOAI797bDlf2b6ieA1AYIR0ACvCDp553zDWy/9d74dLe9fD+Fx+1/SgAKJiQDgAw49rdW+FXn/RVzwEohZAOAAX4zpmzjrniVM8BqAIhHQAKsPb4GcdcYarnAFSFkA4ABfi+O+mVtPvlcDK5fff+sO1HAUBFCOkAkDM70qspVs7f/KTf9mMAoGKEdADImR3p1fL+Fx+HK/ubqucAVJKQDgA5s36tGkZ/uz+pnl/79FbbjwKAChPSASBn2t3LF6vnl/bemUxwB4AqE9IBIGfa3csTq+dxMNzNz+609QgAqBkhHQByZrJ7Od69tx2u7N+wVg2AWhHSASBHWt2LF1vaL+1dD+9/8VHbPjoADSCkA0COtLoXazIY7u4t1XMAaktIB4AcmexejN0vh5O759aqAVB3QjoA5Ei7e76sVQOgaYR0AMiRdvf83Pz8Trgy3LRWDYBGEdIBIEcmu2cvhvIr+5vWqgHQSEI6AOREq3v24lC42N5uMBwADTUU0gEgJ1rds2MwHAAtsS+kA0BOTHZfncFwALRNDOkjbx0AsqfdfTVxMFysnmttB6BNYkjf8cYBIHva3ZcTB8Nd2rse3v/iozo+PgCsRLs7AOTEZPfFxNb233x6K7z5Sb9Ojw0AmRLSASAHWt0X8/4XH4dLe+/YeQ5A242EdADIgVb307HzHAAesmNwHADkwGT3k02mtt+9ZTAcAMx4Ytzt73QGPWcCABnS7n40re0AcDTt7gCQA+3uj9LaDgAncicdAPJgsvvDtLYDwMlip/s0pMdd6evODABWp9X9Aa3tALCYaUg3PA4AMqLV/aC1/dLe9fD+Fx9V4GkAoD60uwNAxto82X30t/vhN5/eCm9+0q/A0wBArWyHmZAe2903vD8AWN13zpxt5Sm+e297Es61tgPA8qYh/S/OEACy0bY76fHeeQznWtsBYCWTa+jupANAxs59vR2V9NjafmV4Y1JBBwBWthvm2t0BgBWda0mru5VqAJAPg+MAIEPfePxMo4/TvXMAyM2keK6SDgAZOnfm2UYep3vnAJC7B3fSx93+qDPoOXIAWNFawyrpsWIew7l75wCQu2GYa3eP1fR15w4A2HcOAMUad/uPhHQT3gFgRd9/6p9qf4RxIFwcDGcoHAAUZjj9RvOV9A3vAADayVA4ACjNoSH9L94HALRPHAp3ZX8z7N4fevsAUI4jK+kAwAr2//o/IYTna3GEJrYDQGXsTx/EnXQAyFAdWsXjM8bK+c3P7lTgaQCA2aL5VyF93O1vW8MGAKuJU9Gryjo1AKisQ9vdQ/qLs94bACwntpBXjXAOANU27vYfraQnQjoArCAOX4vV9LXHz5R+jMI5ANTCQ5Nb50P6bWvYAGA1f/jsTvjJM+X936mBcABQK8eGdLtXAGBFMSCXEdJjxfw/790WzgGgXm7PPq2QDgAZi23m1+7eCj/71ku5H238XgfhfLsWk+UBgEc8lMMfm//bzqD3f84MAFaz9sSZ8F/PvxbOfT2fUS8xmN/8/I41agBQfy/GbWvTT3FYSP+z4XEAsLoY1P/jH/41/PjpFzL5etNQ/ofP74TR/1Z31RsAcHrjbv+hXD7f7h7SEnUhHQBWFIN070+/ntxP/+W3e+HZJ59Z6AvufjmcDIGLd8xVzAGgkXbmP9RhIX03hHDe+weAbMTW9Pjn3Jmz4ftPPT9pgX/2yW8+8rVjGI/r23bv74cPvxyqlgNA850qpMde+Nf8MABAtuIO9fgHACDZnT+Irx1yMo8keQAAACBzj+TvRwbHBcPjAAAAIHfzQ+PCEZX0oJoOAAAAuTo0dx8V0h/piwcAAAAys1BI3z7ivwcAAABWd/uwr3BoSB93+0I6AAAA5GehSnpwLx0AAAByMRp3+wuHdNV0AAAAyN6RRfHjQvqh/fEAAADASo7M2yrpAAAAUKwj8/Yji9NndQa9D0II614WAAAAZGPc7R+ZxY+rpAfVdAAAAMjUsTn7pJDuXjoAAABk59icrZIOAAAAxdk67jsdG9LH3f7IvnQAAADIxJH70adOqqQH1XQAAADIxIn5+jQh/ffeBQAAAKzsxHx9Ykgfd/sx6Y+8CwAAAFhJJpX0oOUdAAAAVrIz7vaHJ32B04Z0Le8AAACwvFMVv1XSAQAAIH+nKn4/dtrH6Ax6H4QQ1r04AAAAWEhcvfb0af6F01bSoxveAQAAACxs67T/wiIhXcs7AAAALO7Uc95O3e4eDlre/xxCOOuFAAAAwOmMu/1TZ+9FKulhkRI9AAAAsFiOXjSku5cOAAAAp7fQSvOFQvq4298JIZy4fB0AAACYyLWSvvA3AAAAgJbaGnf7o0U++jIhXcs7AAAAnGyhVvew6HT3KVPeAQAA4Fijcbf/9KJHtEwlPXrbuwAAAIAjLXVVfNmQ7l46AAAAHG3hVvewbLt7OGh5fy+EsOGFAAAAwEOG427/uWWOZNlKejBADgAAAA61dPf5KiE9ftOFRskDAABACyw9x23pkJ52vbmbDgAAAA/sjLv94bLnsUolPWh5BwAAgIestA1tpZA+7va344V47wMAAADCyh3nq1bSg53pAAAAMLGVroYvLYuQvuldAAAAwOpF7JVDevotgaAOAABAm8WBcTurfv4sKunBADkAAABaLpOr4I9ldYadQe+DEMJ6Vl8PAAAAamI07vafzuJRs6qkBwPkAAAAaKnM8nBmIX3c7W+mcfMAAADQJpnNacuykh5U0wEAAGiZzXG3P8zqI2cd0k15BwAAoE0yHaSeaUhPvz0Q1AEAAGiD7XG3v53l58y6kh69kcPXBAAAgKrJ/Mp3ZivYZnUGvfdCCBt5fG0AAACogOG4238u68fIo5IeVNMBAABouFxyby6V9KCaDgAAQHPlUkUPOVbSg2o6AAAADZVb3s0tpKcJd5lOuQMAAICSjUIIW3k9Qp6V9KCaDgAAQMO8Pe72R3l9pFxDumo6AAAADRLD+dU8P07elfSgmg4AAEBD5FpFD0WEdNV0AAAAGiD3KnooqJIeVNMBAACouct5V9FDnnvS59mbDgAAQE3lthd9XlGV9KCaDgAAQE0VlmcLq6SHg2r670II54v8ngAAALCCwqrooeBKenS54O8HAAAAq7hY5OkVGtLH3f4whLBZ5PcEAACAJW2njWWFKbqSHlI1PfeJeAAAALCiwrvBCw/paWT920V/XwAAAFjA5rjb3yn6wMqopIe0AH5Y0vcGAACA44zK2lBWSkhP1XRD5AAAAKiit9NMtcIVuoJtXmfQey+EsOFHEgAAgIoodOXavLLa3adU0wEAAKiSUnNqqSE9XcK/WuYzAAAAQBJXrm2VeRhlV9JDuoxvJRsAAABlu1j2A5Qe0tMQudIPAgAAgFZ7o6xhcbNKHRw3yxA5AAAASlLqsLhZVWh3n1JNBwAAoAyVyaOVCempraCUZfEAAAC01ua429+uyoevUiU9BvXXQwg7FXgUAAAAmm9UtdXglQrpibZ3AAAAinAxDTOvjMqF9LQ7Xds7AAAAedoqeyf6YapYSY+uxul6FXgOAAAAmqeyq8ArGdJTu8GFCjwKAAAAzVO5NvepqlbStb0DAACQh0q2uU9VNqQH094BAADIVmXb3KcqHdIT094BAADIQmXb3KcqH9JT23ul9tYBAABQO1er3OY+VYdKegzqcdr7dgUeBQAAgPqpzcyzWoT05EK6PwAAAACLqHyb+1RtQno6UPfTAQAAWMTldI26FupUSQ/p/sDVCjwKAAAA1beVrk/XRq1CejgI6petZQMAAOAEwzp2Y9cupCfupwMAAHCcC3W5hz6rliF93O3X8jciAAAAFKJW99Bn1bWS7n46AAAAh6ndPfRZtQ3p4cH9dPvTAQAACGl+Wa27rmsd0pMLaSAAAAAA7TWq0z70o9Q+pKcXYJAcAABAu12s6z30WU2opIf0Ii5X4FEAAAAo3htpblntPdakH57OoPdWCOHVCjwKAAAAxYiD4i405awbUUmfMkgOAACgVWo/KG5eo0J6ciG9KAAAAJprMp+s7oPi5jWq3X2qM+idDSF8EEJYq8YTAQAAkLHvNmFQ3LwmVtJj23tcyfZiBR4FAACA7DVikvthGhnSw4OJ7426mwAAAEC4PO72N5t6DI0N6eEgqG9azQYAANAYm+Nu/2qTX2cj76TP6wx6vw0hvFKtpwIAAGABjVq1dpRGV9Knxt1+bHtvbDsEAABAw7XmOnMrKulTnUEvTnxfr8bTAAAAcAoxoL/YtFVrR2lFJX3Gi3aoAwAA1MaoTQE9tC2kpxcrqAMAAFRf6wJ6aFu7+1Rn0FsLIcTW97PVeCIAAABmTAN66wqsbWt3n0i/ibmQXjwAAADV0dqAHtpaSZ/qDHpxiNx7IYS1ajwRAABAq7U6oIe2h/QgqAMAAFRJDOjbbX4jrWx3n5V+Q/Oi1ncAAIBSXWx7QA8q6Q+oqAMAAJQmBvRNxy+kP0RQBwAAKNQoBfQtx35ASJ8jqAMAABSi9UPiDiOkH0JQBwAAyJWAfoTWD447zMwwOT8wAAAA2RLQj6GSfozOoLeWKurrlX1IAACA+hDQT6CSfoxxtz9SUQcAAMjEjoB+MpX0U0gV9d+GEM5X/mEBAACqZxrQR97N8YT0BXQGvRjUX6nNAwMAAJRPQF+AkL6gzqD3Vgjh1Vo9NAAAQDk2x93+RWd/ekL6EjqD3iup/R0AAIDDXR13+5edzWKE9CV1Br3zKajbpQ4AAPCwi+Nuf9OZLE5IX0Fn0FtPK9oEdQAAgIMVaxfG3f62s1iOkL4iu9QBAAAmhimgW7G2AnvSVzSzS10rBwAA0FYxmH9XQF+dSnqGOoPe6yGE1xrzgQAAAE5mgnuGhPSMGSgHAAC0iAFxGRPSc5AGyv3WPXUAAKChJtd+tbdnz530HKQfVPfUAQCAJoqT258T0POhkp6zzqD3agjhrUZ/SAAAoC2ujrv9y952foT0AqT299+FEM42/sMCAABNNEr3z7e83XwJ6QVJ+9TjPfXzrfjAAABAU+yk/edDbzR/QnrBtL8DAAA1or29YEJ6CbS/AwAAFae9vSSmu5cgTUH8runvAABABU2ntwvoJVBJL1ln0Duf7qqvtfogAACAssXq+Rvjbv+qN1EeIb0CDJUDAABKtpPa2+0+L5mQXiFpqNxrquoAAECBYvX8dQdeDUJ6xXQGvbOpqr7R9rMAAABypXpeQUJ6RamqAwAAOVI9ryghvcLcVQcAADIWJ7dfVj2vLiG9BtIE+LfsVQcAAJZkcntNCOk1karqsf391bafBQAAsJCtdPd85NiqT0ivmc6gt56q6gbLAQAAxxmmcL7tlOpDSK+pzqD3SgrrBssBAACzYsX8bYPh6klIrzEt8AAAwJytNBhu6GDqSUhvALvVAQCg9XZSONfaXnNCeoN0Br2NFNZNgQcAgHYYpqntm953MwjpDeS+OgAANN7k3nkI4aqp7c0ipDdUuq8e76r/XFgHAIBGuZqq58J5AwnpDTcT1l9r+1kAAEDNbaZwbihcgwnpLZGGy8Wg/krbzwIAAGpGOG8RIb1lhHUAAKgN4byFhPSWEtYBAKCyhPMWE9JbzoA5AACoDOEcIZ0DwjoAAJRiukptUzgnCOkcJu1Zj63wZx0QAADkYjgTzq1S4ytCOkfqDHobqbJ+3ikBAEAmtkMIN8bd/qbj5DBCOidKQ+Z+nobMaYUHAIDFxVD+9rjb33F2HEdI59TSvfXzKbCvOzkAADiWlnYWJqSzlM6gtz7TCq+6DgAAD2ymlvZtZ8KihHRWMlNdfzmEsOE0AQBoqdjGfkPVnFUJ6WQm3V1/JQV2k+EBAGi62M6+larm7pqTCSGdXKR2+JdTlV1gBwCgKUYpmP9+3O1veatkTUgnd2mV28vurwMAUFOCOYUR0imUCjsAADUhmFMKIZ3SpMAew/q/WOkGAEAFuGNO6YR0KiENndtIgX1DWzwAAAWJofx2/Oe42x86dMompFNJM1X2H1jtBgBAhmKFfDu1sdtjTuUI6dRCGj63IbQDALCgaSiP1fJtO8ypOiGdWpoJ7ee0xwMAkIxSKL+dgvmOUE7dCOk0QrrTvp4q7euq7QAArbCdQvluCuSGvVF7QjqNNRPcp+H9rLVvAAC1NEx/bqd/CuQ0lpBO66RW+WlgP5da5VXeAQDKt5Na1m/PBHMt67SKkA5JZ9BbS1X36T+/MbO/XYgHAFjdNITH8L0/E8SH1p/BASEdFpBa6Kct8+szA+tmA3045O8BAJpmfn3ZNHiHmQFuk/+sNR1OKYTw/2z0Q8ooseh4AAAAAElFTkSuQmCC;" vertex="1" parent="1">
          <mxGeometry x="124.41" y="73" width="89.17" height="89" as="geometry" />
        </mxCell>
        <mxCell id="tQYVdQLkCmxTkYTXcwZQ-15" value="" style="shape=image;imageAspect=0;aspect=fixed;verticalLabelPosition=bottom;verticalAlign=top;image=data:image/webp,UklGRvwhAABXRUJQVlA4WAoAAAAYAAAA/wAA/wAAQUxQSDMXAAABwMf/nyHL1X6Nsz5rx3ayyRqxbdu289w4q9i2bWvjrDdaxFncNc65y9NdVd/Xq6u6C9NT8+iPiHBwW0vQSvu0jVwMNBVDov/Hm4IoUhHGYS1GFCjXNmse59SosZTkX+Po29+Z8NsfP332yLlbS1VqKcKAgoPfXYqCxCdc1KmGEkFEtM94ACxhjHPO0hTA3EvqKAhrJdcWbwEsFTIBQmRnLAV+2V/KqIVUp9tTcKaU5JJUgWfEO1vUPKYwJDprDpAKqFQxwRjS2zpkRG0Tsvv4QkpHQKTAv0+Td6d2cW3yakbxHGVMjN5ByqhNVPuRq8AZjA8AORnPrpMx1SIhp87UcJkXMo6lV7ekIKw1QnYeDSQ6yorpt8NrClNGbfCCiRBbpo97E8U1g6q/aQU4y5U6IhiDuLdrJqM2CDn+n5wQozHGubFCKTD/3IDC0P9Ctvsmx2U2wBhsbkkCTNzd8zIyap2nbSiRAounQ7IKYSzjlQ09zhQStbp2GQSzGVmLLupY1+89wzujKMI4VtxUTxT6muuoP2wW2YwBD/ZQVDxomg1TCvxznJeZMmrgqJwQc8vaV2nPMKDmVzXmuqephl8OIoq9S63xGMCYjZBph8nelNdyradsJ+dHV/epDKUnXdkAYTGWBBqvbJFbWeeJ7b8DrBRdcql0S/lTyKHTbIU8viZRZPBcMsuGKHBL+ZGrz8e2Qr4YJFvQRN8Ot6bqUBWm+r4t3VIepHo+aCvkz2Nk/zF2SL5TZIO97JYKA6q7ZJHN6GECy65vTRTajNj9J+fUtnNL+UzIAb/IZrPhem49osj2xl3ekFuqedctFRP1es92kf2d0mYOLPbjuWnLp24ppSG63s3BGCx6zIyT5JhxU4Mh3wCJcSETHnJLKc0ZnT/fYsYA41g1vJ2r7qI06UkzcjLs3FJ+EbL3D7KhrJ4fN3Y4WBQF241synViK7eUR7g2f8tWyPjdZD9xXZfN8nWxc0v5YiPttiTnTzel5pwljWUl+vK+PwOp59xSSr3PnG0pJL1dbqlXqErxJYshHLilfLCRlihCSrdYVtRd7VGAWdngVzfKmKqaa+NXbIX8uI/sGZWt2aCvgMSmV68cKt1S1buRNmKVpZAFF0QUhJXv2cdPd+KWqk4hp8w0bpCcZbivWykGRUjUdrjV7c27papQyE7fS8pmSvhwG6KoPPvVr3vFLaVUcf0XbIVMPViOhnKt6zziloqI6m9cDs6smuHyZlkzlG1df+EiCAduqarZSPvbhosx4JHyDQOlGj0eAhiztvDVsZH2te1z8ecDcvUvITFgFJCKKnZLKZVa+ylbIb8fKft/ee/5MX9XtVsqJGp1zVIIZucSaEVBuSve5qaV4AzWbqmyb6TZcD29TjV0/A1fqVK3VEQ08HPbGn+zrZz6q2Hi22MSkNq7pUpIrfEowJiNkH9OIArDKjF84XkLnLilqmkjTdkeb6vhKj1Tt/vzNtjKLVU1G2k8BV6srvAIpUn7fubELVWyjTQbrrE7mzz6VYOMI/9w4pYqx3rvASjbgb7ZCwoDan29XP2jBG4p232gi2020sA4klt0e4HV9vT3IpCW2S0lN9J+lpRNzd7YTEdVH9Ou4x24pYKwgqu8Ld+3FTJxT+nzqXK3b3DOPEsZ/xxLFFWs9FpmuZE27xw5s/lgv+9eYbkgeqdbZXJEnT61EsLA7urij42P3lZ2kaWYtTVFlajNmr8isZrS3u1lQFW1jMN/t+gjIkFjBXJI3f5AE2Del385QArxSrxHy2uXWdjgBLO6U+j4VlL0PRKbcNGLY83GtyeY1nteMhnn991/36McxuGiPTMuP73aMdaQSQiR4gS3LRXRLuBCCEMhn/Q1p7ywBTrXjBBg+KOl40qMA4Mw4/pV+0KMd5g638WNbLD8Ookil/ofDiaEASXQeFVhuKi3Yp8+zMnQgGGUW/0/l99G4aJrGXB5ScYhv+qZpA6r1qfAme60qfwHAyFfDpZcXgx6bvGvpbldocIvl6cxnYe0EALIqL+ONaE8JmPtZwCZUZAS3OsOIT2DFIWHYFiuDRf1INOOo1F8CIaPXXbdsWC687fXtRLiLRt8FYrHDseUOndoORNcFN+yx4jigDybYgoXgKMgccxp5Q5tloAXn6zs7uc3QNsu0rXeknp3qG+EKEZDGyIvQ9t6jRVEY9vqQRCGURxHYRBIJYq0qHrUV4mxsJzaoij0KUJdCwYOEEXqP3XYcq8TLxt+/1Mvv/nOu2+/+fLTD9167XlH7bJph1jVPw49iZCoTX1BameflR4VrHnQda/82JDCKCUNv7x9y0l92qhKevFju3cXNebTkhWjOlrlQPK32+eOCSvyVj5JUpmYwpcpkV8CiNlvXtYvlgX+w1Do0q0UWVHxnk/MAQAumzhLmucFCCXxNGGKIlNuGSSJwGcIsoOnoigxmxVfRnW55BflN6b8H4xT7lJlVI4+rT67wGcfrRvAiruOxYonJGp/3TyAq/0N1kkIyJ8EMP3SegpCf6Fto6R0ehuXnjILSJlS4irJApYCf8tYY2+hvgECLhDRuh8DCRfQUG7YeUZ8sA5F3kKjEwQBHdpYuFfkllA3kxoOyZT3NwKia7Svazi/IAGuJgq8CZPjbnCWoypFMI57suxt3F6hy/Su0Lt9jYguLvAKVpKASHElRZ6Ewa4WuNkhcgsszlmWOOcFC1HDzAX2pci/CKjddDAIw1VVwgyaWCrDlUsNMsO8HhR4FxHda7Cnq6zPUygpXb7on6k/TBg/6aep/yxcugo5bZgs0OcEL1DoW4TUi8t2NtnUA2a8PfLU3bfq0aZFXSRdTnUtWnfacPBBF9390WylQJjcLYY9KPIunkMK7cEE8O0V/Sz2hlsPvOLrPKEt+t63xQFtuErfeEiBZ/srakVxqHFaBUEmRu1YWz+wEsxoQ3V/iryKiK6Wm3pa+/nDQGuXUijbdqM3AQad0ik+osCzl0wA0/QcpHg5LvCn2RacrWSd2nwrCj2KgDZNDXrOO0Sxs920vRk4RDFS3ECRRxHTKdAtLThmd7Z/hC5U+zBo3RQME8mnJ5EM6NJoleIiuavnMI9ACqEbt5tR4NPij3QfAktXp8AhAop/0V0jUpxOsUdRNxW8GAxfOt9PPlgbE5XiUQo9ijYLwaFptYcpJPcxccXVYhgX+LM4oK7LdFolGE6xW0R0pi4qSKChIwX+xOrL9bjJNQLq2aC13GwbCv2J1QxwO0XkOr+NFIXgOJAif6LTUh1SvEaBY8R0ke40xVkU+/OSVnN1l3DMa+/6wpAGgHFRlFbhXz5F/LPujwTDUPcv70RToEs7U+hP0HtgWrVwnnyoCpx+9Rrd2NCYSw2NM8/x6bozoju0625w4NXNHEeVBFmj1hekts0y7XyKE7TLRgHBkb52aAen4UVa3UKfIqANmyCEyfsMmP/a+f1a5dpRxpqR6+TRYvpOWTbrCSYVmPnusCN6FSgZyb+rPYjoYul3MyDyUSVg879+5IpDt2ofaf6uhiCgnkvAZTbdd+FQUrrkpzfvOHf/3p3iggiljLU2nER0KxJIGO+7cVbACtY45YMHLj+yX+co3wdD/yOgLnPBIGzjiwTnaZLm/443/vzaiBP7tVMVj0PPXxLRscoGipMwK6UXJvleKBZ8ff8ZvVsquoc+B4X0aOErvS7+ThN4KKa/fEGvSCnwNwIKPkWTgDAl7GakRLFN/JfbdqwjCkOfQvvVYpSbuBNj26T8NPWGjSXhT+hz/ELBPnKFfhJA08vKe4C+hEGmS5k25NL1IOSS/Y0tiUI/Q4YM9voSeaJSBakAGx5T5GeQbK6jfwZEqsTUVCr4MAUmbkKRn6EMmPjor6ViCROVm4ISLN2dIk+DlPYacPefAMBygffCPZEC+1HkQ9gQLXe5dcIqRUMlwEz9O7eZD6bIe7AOKAnWP+G+0Q05PeUDBysIOHSTZ3WhwIOwLiDqvP3pd73/+1IGGNwACLuc4HkKvY0irwIpqVmX3odcfOtzo35d0lSgOEtSq0kp04hhN4o8CAc/hXFR4zVrt+F2h5438vkv/lqeq0SactOfZNEoTxa7Yo3i4sV08x6Dj7v+2XHqpMRSLgtMSAyhsCZAH3AYB3ktOg05+/EfVykFktAixb0UeRaOO2Lu78L1T3xmLiAMCMHxR3NPngSBBqFT1lhRssMRH8Io+hSiD4U+REbVF26YhRS47oKKr2lgRnBt1VKcSbEHEVCbF5cWbZgunbqdJJ0XBERncX1OcDdFHkRID0GT5ndzTpLqcDwQ2qoxvOPD4oA6LAHTBEycQzFVItXRMKRCh/GhF7H2ysIJU4gED1JUGVNE3bV14/iruRfRc5mmQgyjqGLpUzBt9E5rL6J9owYcC9pTUBGE9DBSHRa38SCIWs4EL9ZIYAe3zDbRKxyL/IhwHFhxjVJcTVGFcLces1v5EAG9rrMXDGOIKnTytP5kWjMfIqKRSITugXFghU7pG80lguFr8iOO0750kOKZipwG1GWJZgJDiuco8NqJ+UtHAuhbiRzREdr7l+A6Lz53EEW/gGuqxPAdUVCBj89054LjIIp8iIju1L90mOJOCl3nOjoMXIhiYNkaXjyhkHbUt5jg+BdR5PhYbyE4TF7e8eIJhT+C6b4yLe7KcugMYUTr/QEGzc1LcSlFfkRE5yFjgSZzfN9X8Si4crwcsAAGs/fydSnwIwJqNxNcn1OIx7aQasVWPwWh4n7c6iXoD6Ry48WXJxFdoP2SbcgA9t7xPUlJYRxHURiGgUyZgCiK85F2HQ99k4Nz3SFXb/39CaL4RyUbRV43fnrDAeu3MK5N3G2nS16fD0DvdRZI8CyF5E1EtL3S0PqdEzXyGqtmfPHMyItPOHCXQdtsvslGm2y+Vd8d9j7inOseeH/KUqi7DkJoa8XRsJYHUZxvRJIVGIVTsYQXKcKSpqamJC3UJDXadZI3DKdRRN6DJr2LpizbRB2njIvCls3vP8sSs13nZyggryKkVhM02aQHGiQIcx2b8H2dF6HLnX/KxZ1WOglkxy+dKCTPgiLq+K1J3Gmlwq4mdqGIfAh9rnsuF3da2YMJvNuaIvIw5Eg5r0ktFJWjeALcKB/ZvAwKAtr8S0CNo6gIJTIuTNlJ3kFPQ+kvJ/+dEUrMpfsSngJLr2shS70Npce0uSQjRMJdFmQaqkvUZfeuTdnhdSjN1urkrwGFXWlRF79xZX0+feg6mdoB+R4UyI7Tf8Tk3LKaCWNWkX/thAFAw+tH1KuUZ2FxAdUN/K/PFkNJyhqbcS6KEueMFbyDxn9//OgepFJehYuw0067XvHMD43c6pwt+OaB03o1z3fX6kLbMsBN5G3Uqc9hF936/Mfj/1r4n+WrmpI0TZpWLFs8/YdPX7jtwoO2VGsfyuurDQ0l+HAYWKY2bfPWHdfYIHM6bLX5xmt3q28REWleO3WG/1QObRaDF2N5ZworDcdBp2YKRXHOM+0UC4pbj2OJQ7SYjuIHf4bLiaJKw33KOR0lH1UoxUSzdZjdyqHS3+nCA4ChbYjCyqLqUhhQ3YhiCy44fo7dKU2PIS1uNwH8fZy0dX5Ezi4dMg0o7jsMH5AzRHQqmBBat/BXgyXhR2TUNh9C9263SHCnu7kjoLWXK6u/QoIx4Ik1iSLvQWmZrndzMKY5zz6OoYjc5TeQQpdFKtB4VQsKQs8hDCk4Z57epyN1WL4WBQ5v3a757WEt07RDXTC1NUBDfVUJ2X2CAZUpkeIDeTj8+kDZHNISPCM+7k0UW6rcbRmEPiauirg2ehl5j6YWRzhdOoS0ZQquZr0McV93oshK5a1TPWa3qhIuovqhK8EZDA6w7F9d38FLkQiZjZgWXhhTGFpofCyYFr81qxau4/42dOYK+X1w9u04vYQmZNmQ+GlfKcMYTyDVqMowOqgOroFfGlJSkSa8SK7rHlA8SiEFYCbj7S2IItNfFoGLYqR4qyqo1R9Fztaabc1Na+ccFFKLT8CYYZb6pLd1NCNiugGpTtcE91BU/kX2ZUsgjEtFE/69PkUVmcYehlJozDT7TDKQEdMWq8AB3ccFFJddyP6TLbjAGKasK298RfKx8y3qIxJg3K5aH1AddZgCBqHVcVcKy821xTt5W2s6RzzVplL9Pgip2wPKkjsjTKv0cm+pX6w8H0cR0bo/ITU4GrtSUGaq0+2pRdOIFPh570y9Slar9wdAyo27NAfeO6x9gZqtzlmCVK8iw6hSL7Lp9Nk2QyMVWHxJTGFQ4UF9wM9WNQMw58Xzd9mwW8/ND7z1L0A/UQv13YLyCtlpjGwTG65HV6OKVzoMKD5/XgFhHi60bHmC3AuhBjdnGwrLyrXuczZCRKK6CuJyVLDLXSm4+djmaaqowxOzsCCGb0pra1tduxSc2QyIGScSRSWZ8GKiLd4quMUmtdREx2iR4kSKysl1xO9WtpajaUS7jKtU9dwr/zzrODCG4bcW5eTq+4mtrX1j04wqnT/jjNmuCalhipMpKiHV7f78Itv4uWgfyVXC6na8ZRU4c0nI45sy2tro/AUubG1Y0pl+k1dyMlwdHMmWFJZOyF4/WNlaZmBrS1frXUa7IwQEkyGhpbvzrwMpt+H6apCkyr3SO2WG2X03nf9uobBkVLsRTeBWi+zpx5sKKVvlh64AlABoy4Nx3EsleuJQHN4nTpe33JCS1Vw1vC1RWBVOjg2eZpqYMeN137WlOiKibb+2XWS/vokBV4llbPHIMouYMZEhFZh3QHaUiVrzSVshP+5lwFVyGesOm4l8gdA0gmApgMe7UVSmRXbzqxohlFIzSmDRhVHO1lYNIcWdOIoDYAnLhQkVxUaterkfUVSmbn7wVBsuxoCHe+i4quZvaMtrxiQGJ01jr95Y6SwlQUzU6wNbrlEDFPWIqpKgjU998KtZy5tSLni6csm0D+44fgNlZJZISBdlF9WG+vvYUgtxFTDVsvvGvfr177PlOu3q1NYKyjS/nTXX1tYOqy+2tVXJHke6nhIFperXu44DEjtbu7EU4oEUBKFMQWDTgyrDtf6L1rZ279JzlclwUuCayLRsfcMKcAYbW3tR6W1tqcZP7y1lD3Gs6jF/2j5fPtQz4/IltcUbgr22IVHkkmvAKGtb29+j1Gr3MQBYcW2LjMkV1fNhuLG1/oOMFe1y/WLlKTUFph0gW8uJo//ixRBWtnblTW0c29qqXpOsO7Rgz4JnxFvSTNr30/1+tn2+fHUjL3JFcjm29wsr8rOHLGcMK29olTHZabv5W7ZCftjTl7aWBt/+J3JNWNxuvx8i282c6nBLYrmLuvCC0JO2lo7+CQBPZXPpx807hnsCSnOe9m/b58sHuvvS2lBHIEmVx3Gj5msa2iZjMhGyw2hbIZ/3Uyk/5ouzzC2Gz5+HSyYd1zrP2gr562hFiD/THnlXialP8gO5EC20tS2vXgrBbGztihtVW+tPhNTsqv9YPDYwBnZz24wpz3XYb9a2dkNPcmlH0vNAasP0jzKQgpio90dWXAkwaY8cl3+JXSdKJgvik22kfl3vFZaL7AXnK7bWw0k2VnDBYovphDPw29frfsF8W1t7f6Gt9XJhz0ctmZqW2Qr5LG9rfU4M+dYyfpO5sLV+T0FGnGocHCdVEZa2tsBd5fvCzndpp1Yne9Z4WbG1tSFJ0/qp8fwCY66Ju+u4agDT0f/kCDfU/PMCaWtrSQoDqh+RGDCZ29puBly1Qcam2ghxc1vbV7ePWFOYDpqWY7Lh+vMonZBaw9Ti6mXgDDa29vrWGltbi5jWfynHZMb10gYaIbWKaY8fcgtR/fPlhN10XLWKKaTwkiXyAtna6m+CZ9T8c3W2trYxrf5IAogkZZxzpgTur7y7a46rVhKb3jG98JffhytCamdSTEurna9+4bupf075+tkrtm9e1UKqPGSnrrkmVKfWFsRBTkBI/383EQBWUDgg4AkAAPA7AJ0BKgABAAE+aS6RRb+ioZj8nZH4BoSzN0t4Xv4URwMuYdLlk3+AYAAkf5rZHl+d/KXvkNl99/uX7V9Ejyx4T6YFHXrL84Z3f8B/vfYJ+i//F7g36If5T+2f4PsJ+ZP+o/6f9wfee9Pn+M9QT/PdR96AHlzeyJ/YP+H+83tP///s0+mP6YfwD8AP0A/H/v/t/sPVPcSB1/7vdTpkrkEi4zOd3vsqJXSBCPBlrzi5vrGFkFt916WYYIdga1+tvAq+G2xSILO052kDnvynzOMFPqjRr/7Z2uNTrEsUVsD5xvpnw/f7ibN3PobcjMZyE7YlStxBwNVdt2d9jIibldIDjx5HEzSbW/y13niAcYa1ACU/VoABXgLzenOGXMdirlxXO/3b6cFIpTAqvkVVDHteIe1PHSEL3epVE1Ve/wePnHoHZobTA60hxKituMdw7YlMeez+SdDkLtaPdTvlXCIUiMcSorbjHbtaHXc9nYy8tqEG209DL6Be4j7bIDM3RaZQWLTvCDoS4nzm0dqdIYR/cOm5uoZoBe2gL8bQrOZp6JoIcERd/Ciqi6DRafhChj0peWRpxhbvno+7tdIMcgdZE0fX0+c2ybBehEXetr6ld1OkqdeIjfVvRYf+YwM3Q/dUhYaneDRAAP42mgBit/Op0m00SXFp0pFuTE1t8+y5QaMXbV9ywKe4kGFeF+Z1MzxQAv/yKCdQMN8I6vcbzWQ2GCTsR/nPWZ9/CZkBdQkbdthlywAAA+NCS3bo6bcrGZco3hCB9oKXh4Z++sVh1o5Rd60t2Plx/sAeLENKd2T8RHxOwlAaGjOH991NFpyT7GYuGBegS0HAj1xGasL0Q1EZxuCgO3LDt3MF1+zsxyTMKx9qJ6+izh8NRCnMQI/AAYbXWYZ3omhcnnXPJuNVAZEFamdXco5t0kgzoe+xaMgppCS3y+pxxXCjNlRxY07bMM38EQHbtiGRO7CF8M5QsK4rc0zsraYPwELzem9YhF2yE+Zt4frUfxVlKPhMS5Saiiez4ShXYH2P+xB7BwluABpQ3wdFLQZNTIyTDgm9gzcovIgs3CUFMF+vh1D5HaQ1tQppDMoPNmnma1356OGaw/MACfA5Pz8FkSB5L56uUXknVUy/dWphs/RhXXAQAeYfRsnjS5kjMgidq248SvDhQVEH26C5OGZrs37yGr5HmBHt7nlp+6KV/2bLYSImdVO1UWelbun06aSIbnpa6imJwIoZZh425jnqKn9qpP48rD45ZTfJYCLyuC5FH9m7amZ/u3ce7XxGSkwUA/3CgJnTo1D2DjhcqJJdysPXI2G6fr9MltSTkdt91+TWsotnq1TGMQqWK8R5T5y5Ohs+bbLrPdZcKqSMJx5EGDGeJz/s2r//b992A0bSuQleWVUOPh4SRPGkPM8hcOH8Mcsc8L8mMoXIhH43nPkSdbd7jtgkq6h5ZBXBKW//t5whnlh0OGmb7U3QLT5JAyQKjSO3Y1ulFRBFbcyX6GLu3OA2f7QBL0AELXvb///DjiHtOfO9lPRz538JuMqmHImB8+OBbeyN+To9VLwAzESk7YLkIDdqC69JJMmuokoVAGPQ0fbPn4K2XUn0Rdi8rnH+gQEfchr1zgjWQrysbdWcWw1E6YXs+dBWo7pfpXwvQoi5lhpP3PR66St9EEzTDIeWqM5XBJYLIDbpfg3LqU9eQb9sBWSbrbKEx5ZE96stRkAdnI6P8BbsvHED3uPO70f/gnU+bP/a8aAqCyndHYX43FUx7glg81YD9QKvfWNnt1fTsvoa7jN0vYP1lwxyMoVd8mQYM6Io1t6U27OuWTIJ1XQhOCO6phOBWO5C5vL4J7eRAZt7ERV3gHwuAoY7uVM0BNFntETr9/9DiSHf+Mu3gXUXNckrbLXb3kmZmMIKCe7MNIaxoVaUvtqcJzB+e4LyXgm3LNP4oVfK1Y/sQ8LDYOafzF2xNtJwluaBUzk2IMt9sFoJUecADcnj0w6QuYDYTHb23x85H9Yr06iTGQ/B8To50L/8F85ywmK27nCD/pndQZwNyTxa1J4mr+/wzT1Xz5KSgOQz+l4VqSlr8r6e/ujNDT4uw5HasNSSpd3ol0TVJ9shZoCG2bkuGqwd6qSg5ZZMPV2b9gWTw5dWWwU1hGfa3QGJRos6zw5BQiI6zTOu1CWVp+dJGfhf6cC8VjAbgA9QfEmTlFHdOSxIGilGLrpjBbwnTHcw6qY3bOliiR2zWT0VL21Ic2du0iUrkp5RxsyP10273mN0a833yV+3DaS/ufHUsZAxOqXoF5z/cxTL72h4mkc/8hx8Xasg11Kj3ONF0qLfW+YxWlx4cYyKh6tH6wo9WjZ/6F2x/GN3gm3Qc4rjtuK10l3/HkcypJgn85HmvFz4ZfrxbbZchI7CRDs//d9zNqEkdGK+RAA8uyxN03567DxjEr5p80+JLKASTsQb1DdyFOe5EMEM/g0CyUWc9B5e5iTwocDpbN0lAKDrsrbVEsXuV3O/YIiHtaxod5MK3Vca9vwodxkg8twt7TNoQKT7PU8wUM+45f//t086eraGR7DFg6pHmUFdr75CqO/47EhmRI+J+xv3gBRiEToaTdSoZrszg6Cj/3f1x6wOJKIrLyhD+HtKmadnTP3Px27v6GRajH8+SgVSVEWxtLPNHiRqLdSEks7LXjFVtbqJcV5YZDbY9j+Xt+Zs1kcAgJAAOfwnpa0hYTMQ9at4erlS9cgK7OVedrpk66Vtk1Y04O6zg3PmD2hIGe0xJG5rcJQStId0EbKJ+Cj9LHOYSfLotYf+5s2hEjCYZO0jAYRNUR6YxGl0B8EYVGV82jtTN/wS+WPBuIBpOv/oOygTVexKQb78Hi5aVRJQszeKbZCmrT3fP8dcNBnd4U2LvNsAUw99LNxbUUdo8g63LJzNQIyqMXDZt8K95KCzPSlAsyuH+g5Y7hqsb7+LseyHto8RdnRdJHGf734JdEPtsC4ay5fWkUZZgPcBoC+gABbquPVeMQ1ZSTW1el6X8IJ6Dr4MdqYQpd7bZhSNJtwo2i+dav/x4zcDf4UI5joLXByvQDGxYAb21h2otTp4IGP5aQFMUH/mW54V+W0VXI/0MApk9pRgAA5AZ18qsvitbIhJ6k6ihtKaaHOM/XnXhwIgZhyBKClJqE2+PzL1gi4az9jq43iNrZwUHrwAGYYLzOyku5Hmk796C7ds0YDQ3CYMrx26Qti1Sbughle7EnvCAdXsa6CPiDMH07r6PSs3NqVYfqKqyz+jIABCUME024GlRb+ayrN37qA+8t2IyMMh6+XyyD4cpxsl9rBvp85u76x3gRR+b2yExwe+2rDyLaCmNJ8SXqiMuAObjRxMTiNvjLsSDpCzV3fccAAARVhJRroAAABFeGlmAABJSSoACAAAAAYAEgEDAAEAAAABAAAAGgEFAAEAAABWAAAAGwEFAAEAAABeAAAAKAEDAAEAAAACAAAAEwIDAAEAAAABAAAAaYcEAAEAAABmAAAAAAAAAEgAAAABAAAASAAAAAEAAAAGAACQBwAEAAAAMDIxMAGRBwAEAAAAAQIDAACgBwAEAAAAMDEwMAGgAwABAAAA//8AAAKgBAABAAAAAAEAAAOgBAABAAAAAAEAAAAAAAA=;" vertex="1" parent="1">
          <mxGeometry x="1500" y="535" width="56" height="56" as="geometry" />
        </mxCell>
        <mxCell id="tQYVdQLkCmxTkYTXcwZQ-21" style="edgeStyle=orthogonalEdgeStyle;rounded=0;orthogonalLoop=1;jettySize=auto;html=1;exitX=0;exitY=0.5;exitDx=0;exitDy=0;entryX=0.5;entryY=0;entryDx=0;entryDy=0;entryPerimeter=0;dashed=1;fillColor=#dae8fc;strokeColor=#6c8ebf;strokeWidth=2;" edge="1" parent="1" source="tQYVdQLkCmxTkYTXcwZQ-16" target="tQYVdQLkCmxTkYTXcwZQ-4">
          <mxGeometry relative="1" as="geometry" />
        </mxCell>
        <mxCell id="tQYVdQLkCmxTkYTXcwZQ-22" value="&lt;font style=&quot;font-size: 14px;&quot;&gt;Upload&lt;/font&gt;" style="edgeLabel;html=1;align=center;verticalAlign=middle;resizable=0;points=[];fontStyle=1" vertex="1" connectable="0" parent="tQYVdQLkCmxTkYTXcwZQ-21">
          <mxGeometry x="0.053" y="2" relative="1" as="geometry">
            <mxPoint as="offset" />
          </mxGeometry>
        </mxCell>
        <mxCell id="tQYVdQLkCmxTkYTXcwZQ-32" style="edgeStyle=orthogonalEdgeStyle;rounded=0;orthogonalLoop=1;jettySize=auto;html=1;entryX=0.497;entryY=0.033;entryDx=0;entryDy=0;entryPerimeter=0;strokeWidth=2;fillColor=#f5f5f5;gradientColor=#b3b3b3;strokeColor=#666666;" edge="1" parent="1" source="tQYVdQLkCmxTkYTXcwZQ-16" target="tQYVdQLkCmxTkYTXcwZQ-31">
          <mxGeometry relative="1" as="geometry" />
        </mxCell>
        <mxCell id="tQYVdQLkCmxTkYTXcwZQ-16" value="Image Capture&lt;br&gt;and Upload" style="rounded=1;whiteSpace=wrap;html=1;fillColor=#647687;fontColor=#ffffff;strokeColor=#314354;fontStyle=1" vertex="1" parent="1">
          <mxGeometry x="1204.41" y="455" width="120" height="46" as="geometry" />
        </mxCell>
        <mxCell id="tQYVdQLkCmxTkYTXcwZQ-30" style="edgeStyle=orthogonalEdgeStyle;rounded=0;orthogonalLoop=1;jettySize=auto;html=1;exitX=0.5;exitY=1;exitDx=0;exitDy=0;entryX=0.5;entryY=0;entryDx=0;entryDy=0;strokeWidth=2;fillColor=#f5f5f5;gradientColor=#b3b3b3;strokeColor=#666666;" edge="1" parent="1" source="tQYVdQLkCmxTkYTXcwZQ-17" target="tQYVdQLkCmxTkYTXcwZQ-18">
          <mxGeometry relative="1" as="geometry" />
        </mxCell>
        <mxCell id="tQYVdQLkCmxTkYTXcwZQ-17" value="Video&lt;br&gt;Capture" style="rounded=1;whiteSpace=wrap;html=1;fillColor=#647687;fontColor=#ffffff;strokeColor=#314354;fontStyle=1" vertex="1" parent="1">
          <mxGeometry x="1204.41" y="715" width="120" height="45" as="geometry" />
        </mxCell>
        <mxCell id="tQYVdQLkCmxTkYTXcwZQ-23" style="edgeStyle=orthogonalEdgeStyle;rounded=0;orthogonalLoop=1;jettySize=auto;html=1;dashed=1;entryX=0.5;entryY=1;entryDx=0;entryDy=0;entryPerimeter=0;fillColor=#dae8fc;strokeColor=#6c8ebf;strokeWidth=2;" edge="1" parent="1" source="tQYVdQLkCmxTkYTXcwZQ-18" target="tQYVdQLkCmxTkYTXcwZQ-4">
          <mxGeometry relative="1" as="geometry">
            <mxPoint x="750" y="885" as="targetPoint" />
          </mxGeometry>
        </mxCell>
        <mxCell id="tQYVdQLkCmxTkYTXcwZQ-24" value="Upload" style="edgeLabel;html=1;align=center;verticalAlign=middle;resizable=0;points=[];fontStyle=1;fontSize=14;" vertex="1" connectable="0" parent="tQYVdQLkCmxTkYTXcwZQ-23">
          <mxGeometry x="-0.1085" y="-2" relative="1" as="geometry">
            <mxPoint x="50" as="offset" />
          </mxGeometry>
        </mxCell>
        <mxCell id="tQYVdQLkCmxTkYTXcwZQ-45" style="edgeStyle=orthogonalEdgeStyle;rounded=0;orthogonalLoop=1;jettySize=auto;html=1;entryX=0.5;entryY=0;entryDx=0;entryDy=0;exitX=0.5;exitY=1;exitDx=0;exitDy=0;strokeWidth=2;fillColor=#f5f5f5;gradientColor=#b3b3b3;strokeColor=#666666;" edge="1" parent="1" source="tQYVdQLkCmxTkYTXcwZQ-18" target="tQYVdQLkCmxTkYTXcwZQ-36">
          <mxGeometry relative="1" as="geometry">
            <mxPoint x="1264.4444444444443" y="905" as="sourcePoint" />
          </mxGeometry>
        </mxCell>
        <mxCell id="tQYVdQLkCmxTkYTXcwZQ-18" value="Convert&lt;br&gt;h264 to mp4&lt;br&gt;and Upload" style="rounded=1;whiteSpace=wrap;html=1;fillColor=#647687;fontColor=#ffffff;strokeColor=#314354;fontStyle=1" vertex="1" parent="1">
          <mxGeometry x="1204.41" y="825" width="120" height="45" as="geometry" />
        </mxCell>
        <mxCell id="tQYVdQLkCmxTkYTXcwZQ-25" value="Delete&lt;br&gt;Queue" style="rounded=1;whiteSpace=wrap;html=1;fillColor=#647687;fontColor=#ffffff;strokeColor=#314354;fontStyle=1" vertex="1" parent="1">
          <mxGeometry x="1204.41" y="1055" width="120" height="45" as="geometry" />
        </mxCell>
        <mxCell id="tQYVdQLkCmxTkYTXcwZQ-33" style="edgeStyle=orthogonalEdgeStyle;rounded=0;orthogonalLoop=1;jettySize=auto;html=1;entryX=0.5;entryY=0;entryDx=0;entryDy=0;strokeWidth=2;fillColor=#f5f5f5;gradientColor=#b3b3b3;strokeColor=#666666;" edge="1" parent="1" source="tQYVdQLkCmxTkYTXcwZQ-31" target="tQYVdQLkCmxTkYTXcwZQ-17">
          <mxGeometry relative="1" as="geometry" />
        </mxCell>
        <mxCell id="tQYVdQLkCmxTkYTXcwZQ-68" value="Yes" style="edgeLabel;html=1;align=center;verticalAlign=middle;resizable=0;points=[];fontSize=14;" vertex="1" connectable="0" parent="tQYVdQLkCmxTkYTXcwZQ-33">
          <mxGeometry x="-0.1333" y="2" relative="1" as="geometry">
            <mxPoint as="offset" />
          </mxGeometry>
        </mxCell>
        <mxCell id="tQYVdQLkCmxTkYTXcwZQ-47" style="edgeStyle=orthogonalEdgeStyle;rounded=0;orthogonalLoop=1;jettySize=auto;html=1;entryX=1;entryY=0.5;entryDx=0;entryDy=0;strokeWidth=2;fillColor=#f5f5f5;gradientColor=#b3b3b3;strokeColor=#666666;" edge="1" parent="1" source="tQYVdQLkCmxTkYTXcwZQ-31" target="tQYVdQLkCmxTkYTXcwZQ-36">
          <mxGeometry relative="1" as="geometry">
            <Array as="points">
              <mxPoint x="1424" y="610" />
              <mxPoint x="1424" y="961" />
            </Array>
          </mxGeometry>
        </mxCell>
        <mxCell id="tQYVdQLkCmxTkYTXcwZQ-67" value="&lt;font style=&quot;font-size: 14px;&quot;&gt;No&lt;/font&gt;" style="edgeLabel;html=1;align=center;verticalAlign=middle;resizable=0;points=[];" vertex="1" connectable="0" parent="tQYVdQLkCmxTkYTXcwZQ-47">
          <mxGeometry x="-0.802" y="-5" relative="1" as="geometry">
            <mxPoint as="offset" />
          </mxGeometry>
        </mxCell>
        <mxCell id="tQYVdQLkCmxTkYTXcwZQ-31" value="Request&lt;br&gt;Video?" style="html=1;whiteSpace=wrap;aspect=fixed;shape=isoRectangle;fillColor=#647687;fontColor=#ffffff;strokeColor=#314354;fontStyle=1" vertex="1" parent="1">
          <mxGeometry x="1206.08" y="575" width="116.66" height="70" as="geometry" />
        </mxCell>
        <mxCell id="tQYVdQLkCmxTkYTXcwZQ-46" style="edgeStyle=orthogonalEdgeStyle;rounded=0;orthogonalLoop=1;jettySize=auto;html=1;entryX=0.5;entryY=0;entryDx=0;entryDy=0;strokeWidth=2;fillColor=#f5f5f5;gradientColor=#b3b3b3;strokeColor=#666666;" edge="1" parent="1" source="tQYVdQLkCmxTkYTXcwZQ-36" target="tQYVdQLkCmxTkYTXcwZQ-25">
          <mxGeometry relative="1" as="geometry" />
        </mxCell>
        <mxCell id="tQYVdQLkCmxTkYTXcwZQ-59" style="edgeStyle=orthogonalEdgeStyle;rounded=0;orthogonalLoop=1;jettySize=auto;html=1;exitX=0;exitY=0.5;exitDx=0;exitDy=0;dashed=1;fillColor=#dae8fc;strokeColor=#6c8ebf;strokeWidth=2;" edge="1" parent="1" source="tQYVdQLkCmxTkYTXcwZQ-36" target="tQYVdQLkCmxTkYTXcwZQ-58">
          <mxGeometry relative="1" as="geometry" />
        </mxCell>
        <mxCell id="tQYVdQLkCmxTkYTXcwZQ-78" value="Messaging APi&lt;br style=&quot;font-size: 14px;&quot;&gt;Image Carousel&amp;nbsp;" style="edgeLabel;html=1;align=center;verticalAlign=middle;resizable=0;points=[];fontStyle=1;fontSize=14;" vertex="1" connectable="0" parent="tQYVdQLkCmxTkYTXcwZQ-59">
          <mxGeometry x="-0.0004" y="3" relative="1" as="geometry">
            <mxPoint x="-2" y="-8" as="offset" />
          </mxGeometry>
        </mxCell>
        <mxCell id="tQYVdQLkCmxTkYTXcwZQ-36" value="Push&lt;br&gt;Message" style="rounded=1;whiteSpace=wrap;html=1;fillColor=#647687;fontColor=#ffffff;strokeColor=#314354;fontStyle=1" vertex="1" parent="1">
          <mxGeometry x="1204.41" y="937" width="120" height="47" as="geometry" />
        </mxCell>
        <mxCell id="tQYVdQLkCmxTkYTXcwZQ-43" style="edgeStyle=orthogonalEdgeStyle;rounded=0;orthogonalLoop=1;jettySize=auto;html=1;strokeWidth=2;fillColor=#f5f5f5;gradientColor=#b3b3b3;strokeColor=#666666;" edge="1" parent="1" source="tQYVdQLkCmxTkYTXcwZQ-37" target="tQYVdQLkCmxTkYTXcwZQ-16">
          <mxGeometry relative="1" as="geometry" />
        </mxCell>
        <mxCell id="tQYVdQLkCmxTkYTXcwZQ-57" style="edgeStyle=orthogonalEdgeStyle;rounded=0;orthogonalLoop=1;jettySize=auto;html=1;exitX=0;exitY=0.5;exitDx=0;exitDy=0;entryX=1;entryY=0.5;entryDx=0;entryDy=0;dashed=1;fillColor=#dae8fc;strokeColor=#6c8ebf;strokeWidth=2;" edge="1" parent="1" source="tQYVdQLkCmxTkYTXcwZQ-37" target="tQYVdQLkCmxTkYTXcwZQ-56">
          <mxGeometry relative="1" as="geometry" />
        </mxCell>
        <mxCell id="tQYVdQLkCmxTkYTXcwZQ-77" value="&lt;font style=&quot;font-size: 14px;&quot;&gt;Messaging API&lt;br&gt;Reply Token&lt;/font&gt;" style="edgeLabel;html=1;align=center;verticalAlign=middle;resizable=0;points=[];fontStyle=1" vertex="1" connectable="0" parent="tQYVdQLkCmxTkYTXcwZQ-57">
          <mxGeometry x="0.0414" y="-4" relative="1" as="geometry">
            <mxPoint as="offset" />
          </mxGeometry>
        </mxCell>
        <mxCell id="tQYVdQLkCmxTkYTXcwZQ-37" value="Reply&lt;br&gt;Message" style="rounded=1;whiteSpace=wrap;html=1;fillColor=#647687;fontColor=#ffffff;strokeColor=#314354;fontStyle=1" vertex="1" parent="1">
          <mxGeometry x="1204.41" y="335" width="120" height="46" as="geometry" />
        </mxCell>
        <mxCell id="tQYVdQLkCmxTkYTXcwZQ-39" style="edgeStyle=orthogonalEdgeStyle;rounded=0;orthogonalLoop=1;jettySize=auto;html=1;exitX=0.5;exitY=1;exitDx=0;exitDy=0;" edge="1" parent="1" source="tQYVdQLkCmxTkYTXcwZQ-17" target="tQYVdQLkCmxTkYTXcwZQ-17">
          <mxGeometry relative="1" as="geometry" />
        </mxCell>
        <mxCell id="tQYVdQLkCmxTkYTXcwZQ-49" style="edgeStyle=orthogonalEdgeStyle;rounded=0;orthogonalLoop=1;jettySize=auto;html=1;entryX=0;entryY=0.5;entryDx=0;entryDy=0;entryPerimeter=0;strokeWidth=2;fillColor=#f5f5f5;gradientColor=#b3b3b3;strokeColor=#666666;fontColor=#647687;" edge="1" parent="1" source="tQYVdQLkCmxTkYTXcwZQ-48" target="tQYVdQLkCmxTkYTXcwZQ-5">
          <mxGeometry relative="1" as="geometry" />
        </mxCell>
        <mxCell id="tQYVdQLkCmxTkYTXcwZQ-50" value="&lt;font style=&quot;font-size: 14px;&quot;&gt;Webhook&lt;/font&gt;" style="edgeLabel;html=1;align=center;verticalAlign=middle;resizable=0;points=[];fontStyle=1" vertex="1" connectable="0" parent="tQYVdQLkCmxTkYTXcwZQ-49">
          <mxGeometry x="-0.0465" y="2" relative="1" as="geometry">
            <mxPoint as="offset" />
          </mxGeometry>
        </mxCell>
        <mxCell id="tQYVdQLkCmxTkYTXcwZQ-48" value="Post To&lt;br&gt;Group Talk" style="rounded=1;whiteSpace=wrap;html=1;fillColor=#647687;fontColor=#ffffff;strokeColor=#314354;fontStyle=1" vertex="1" parent="1">
          <mxGeometry x="109" y="209" width="120" height="46" as="geometry" />
        </mxCell>
        <mxCell id="tQYVdQLkCmxTkYTXcwZQ-56" value="Receive&lt;br&gt;Reply" style="rounded=1;whiteSpace=wrap;html=1;fillColor=#647687;fontColor=#ffffff;strokeColor=#314354;fontStyle=1" vertex="1" parent="1">
          <mxGeometry x="109" y="335" width="120" height="46" as="geometry" />
        </mxCell>
        <mxCell id="tQYVdQLkCmxTkYTXcwZQ-60" style="edgeStyle=orthogonalEdgeStyle;rounded=0;orthogonalLoop=1;jettySize=auto;html=1;exitX=0.5;exitY=0;exitDx=0;exitDy=0;entryX=0;entryY=0.5;entryDx=0;entryDy=0;entryPerimeter=0;dashed=1;fillColor=#dae8fc;strokeColor=#6c8ebf;strokeWidth=2;" edge="1" parent="1" source="tQYVdQLkCmxTkYTXcwZQ-58" target="tQYVdQLkCmxTkYTXcwZQ-4">
          <mxGeometry relative="1" as="geometry" />
        </mxCell>
        <mxCell id="tQYVdQLkCmxTkYTXcwZQ-61" value="Direct&amp;nbsp; Link" style="edgeLabel;html=1;align=center;verticalAlign=middle;resizable=0;points=[];fontStyle=1;fontSize=14;" vertex="1" connectable="0" parent="tQYVdQLkCmxTkYTXcwZQ-60">
          <mxGeometry x="0.0347" y="-2" relative="1" as="geometry">
            <mxPoint x="77" y="-2" as="offset" />
          </mxGeometry>
        </mxCell>
        <mxCell id="tQYVdQLkCmxTkYTXcwZQ-58" value="Receive&lt;br&gt;Contents" style="rounded=1;whiteSpace=wrap;html=1;fillColor=#647687;fontColor=#ffffff;strokeColor=#314354;fontStyle=1" vertex="1" parent="1">
          <mxGeometry x="109" y="937" width="120" height="46" as="geometry" />
        </mxCell>
        <mxCell id="tQYVdQLkCmxTkYTXcwZQ-66" value="" style="shape=image;imageAspect=0;aspect=fixed;verticalLabelPosition=bottom;verticalAlign=top;image=data:image/webp,UklGRvwhAABXRUJQVlA4WAoAAAAYAAAA/wAA/wAAQUxQSDMXAAABwMf/nyHL1X6Nsz5rx3ayyRqxbdu289w4q9i2bWvjrDdaxFncNc65y9NdVd/Xq6u6C9NT8+iPiHBwW0vQSvu0jVwMNBVDov/Hm4IoUhHGYS1GFCjXNmse59SosZTkX+Po29+Z8NsfP332yLlbS1VqKcKAgoPfXYqCxCdc1KmGEkFEtM94ACxhjHPO0hTA3EvqKAhrJdcWbwEsFTIBQmRnLAV+2V/KqIVUp9tTcKaU5JJUgWfEO1vUPKYwJDprDpAKqFQxwRjS2zpkRG0Tsvv4QkpHQKTAv0+Td6d2cW3yakbxHGVMjN5ByqhNVPuRq8AZjA8AORnPrpMx1SIhp87UcJkXMo6lV7ekIKw1QnYeDSQ6yorpt8NrClNGbfCCiRBbpo97E8U1g6q/aQU4y5U6IhiDuLdrJqM2CDn+n5wQozHGubFCKTD/3IDC0P9Ctvsmx2U2wBhsbkkCTNzd8zIyap2nbSiRAounQ7IKYSzjlQ09zhQStbp2GQSzGVmLLupY1+89wzujKMI4VtxUTxT6muuoP2wW2YwBD/ZQVDxomg1TCvxznJeZMmrgqJwQc8vaV2nPMKDmVzXmuqephl8OIoq9S63xGMCYjZBph8nelNdyradsJ+dHV/epDKUnXdkAYTGWBBqvbJFbWeeJ7b8DrBRdcql0S/lTyKHTbIU8viZRZPBcMsuGKHBL+ZGrz8e2Qr4YJFvQRN8Ot6bqUBWm+r4t3VIepHo+aCvkz2Nk/zF2SL5TZIO97JYKA6q7ZJHN6GECy65vTRTajNj9J+fUtnNL+UzIAb/IZrPhem49osj2xl3ekFuqedctFRP1es92kf2d0mYOLPbjuWnLp24ppSG63s3BGCx6zIyT5JhxU4Mh3wCJcSETHnJLKc0ZnT/fYsYA41g1vJ2r7qI06UkzcjLs3FJ+EbL3D7KhrJ4fN3Y4WBQF241synViK7eUR7g2f8tWyPjdZD9xXZfN8nWxc0v5YiPttiTnTzel5pwljWUl+vK+PwOp59xSSr3PnG0pJL1dbqlXqErxJYshHLilfLCRlihCSrdYVtRd7VGAWdngVzfKmKqaa+NXbIX8uI/sGZWt2aCvgMSmV68cKt1S1buRNmKVpZAFF0QUhJXv2cdPd+KWqk4hp8w0bpCcZbivWykGRUjUdrjV7c27papQyE7fS8pmSvhwG6KoPPvVr3vFLaVUcf0XbIVMPViOhnKt6zziloqI6m9cDs6smuHyZlkzlG1df+EiCAduqarZSPvbhosx4JHyDQOlGj0eAhiztvDVsZH2te1z8ecDcvUvITFgFJCKKnZLKZVa+ylbIb8fKft/ee/5MX9XtVsqJGp1zVIIZucSaEVBuSve5qaV4AzWbqmyb6TZcD29TjV0/A1fqVK3VEQ08HPbGn+zrZz6q2Hi22MSkNq7pUpIrfEowJiNkH9OIArDKjF84XkLnLilqmkjTdkeb6vhKj1Tt/vzNtjKLVU1G2k8BV6srvAIpUn7fubELVWyjTQbrrE7mzz6VYOMI/9w4pYqx3rvASjbgb7ZCwoDan29XP2jBG4p232gi2020sA4klt0e4HV9vT3IpCW2S0lN9J+lpRNzd7YTEdVH9Ou4x24pYKwgqu8Ld+3FTJxT+nzqXK3b3DOPEsZ/xxLFFWs9FpmuZE27xw5s/lgv+9eYbkgeqdbZXJEnT61EsLA7urij42P3lZ2kaWYtTVFlajNmr8isZrS3u1lQFW1jMN/t+gjIkFjBXJI3f5AE2Del385QArxSrxHy2uXWdjgBLO6U+j4VlL0PRKbcNGLY83GtyeY1nteMhnn991/36McxuGiPTMuP73aMdaQSQiR4gS3LRXRLuBCCEMhn/Q1p7ywBTrXjBBg+KOl40qMA4Mw4/pV+0KMd5g638WNbLD8Ookil/ofDiaEASXQeFVhuKi3Yp8+zMnQgGGUW/0/l99G4aJrGXB5ScYhv+qZpA6r1qfAme60qfwHAyFfDpZcXgx6bvGvpbldocIvl6cxnYe0EALIqL+ONaE8JmPtZwCZUZAS3OsOIT2DFIWHYFiuDRf1INOOo1F8CIaPXXbdsWC687fXtRLiLRt8FYrHDseUOndoORNcFN+yx4jigDybYgoXgKMgccxp5Q5tloAXn6zs7uc3QNsu0rXeknp3qG+EKEZDGyIvQ9t6jRVEY9vqQRCGURxHYRBIJYq0qHrUV4mxsJzaoij0KUJdCwYOEEXqP3XYcq8TLxt+/1Mvv/nOu2+/+fLTD9167XlH7bJph1jVPw49iZCoTX1BameflR4VrHnQda/82JDCKCUNv7x9y0l92qhKevFju3cXNebTkhWjOlrlQPK32+eOCSvyVj5JUpmYwpcpkV8CiNlvXtYvlgX+w1Do0q0UWVHxnk/MAQAumzhLmucFCCXxNGGKIlNuGSSJwGcIsoOnoigxmxVfRnW55BflN6b8H4xT7lJlVI4+rT67wGcfrRvAiruOxYonJGp/3TyAq/0N1kkIyJ8EMP3SegpCf6Fto6R0ehuXnjILSJlS4irJApYCf8tYY2+hvgECLhDRuh8DCRfQUG7YeUZ8sA5F3kKjEwQBHdpYuFfkllA3kxoOyZT3NwKia7Svazi/IAGuJgq8CZPjbnCWoypFMI57suxt3F6hy/Su0Lt9jYguLvAKVpKASHElRZ6Ewa4WuNkhcgsszlmWOOcFC1HDzAX2pci/CKjddDAIw1VVwgyaWCrDlUsNMsO8HhR4FxHda7Cnq6zPUygpXb7on6k/TBg/6aep/yxcugo5bZgs0OcEL1DoW4TUi8t2NtnUA2a8PfLU3bfq0aZFXSRdTnUtWnfacPBBF9390WylQJjcLYY9KPIunkMK7cEE8O0V/Sz2hlsPvOLrPKEt+t63xQFtuErfeEiBZ/srakVxqHFaBUEmRu1YWz+wEsxoQ3V/iryKiK6Wm3pa+/nDQGuXUijbdqM3AQad0ik+osCzl0wA0/QcpHg5LvCn2RacrWSd2nwrCj2KgDZNDXrOO0Sxs920vRk4RDFS3ECRRxHTKdAtLThmd7Z/hC5U+zBo3RQME8mnJ5EM6NJoleIiuavnMI9ACqEbt5tR4NPij3QfAktXp8AhAop/0V0jUpxOsUdRNxW8GAxfOt9PPlgbE5XiUQo9ijYLwaFptYcpJPcxccXVYhgX+LM4oK7LdFolGE6xW0R0pi4qSKChIwX+xOrL9bjJNQLq2aC13GwbCv2J1QxwO0XkOr+NFIXgOJAif6LTUh1SvEaBY8R0ke40xVkU+/OSVnN1l3DMa+/6wpAGgHFRlFbhXz5F/LPujwTDUPcv70RToEs7U+hP0HtgWrVwnnyoCpx+9Rrd2NCYSw2NM8/x6bozoju0625w4NXNHEeVBFmj1hekts0y7XyKE7TLRgHBkb52aAen4UVa3UKfIqANmyCEyfsMmP/a+f1a5dpRxpqR6+TRYvpOWTbrCSYVmPnusCN6FSgZyb+rPYjoYul3MyDyUSVg879+5IpDt2ofaf6uhiCgnkvAZTbdd+FQUrrkpzfvOHf/3p3iggiljLU2nER0KxJIGO+7cVbACtY45YMHLj+yX+co3wdD/yOgLnPBIGzjiwTnaZLm/443/vzaiBP7tVMVj0PPXxLRscoGipMwK6UXJvleKBZ8ff8ZvVsquoc+B4X0aOErvS7+ThN4KKa/fEGvSCnwNwIKPkWTgDAl7GakRLFN/JfbdqwjCkOfQvvVYpSbuBNj26T8NPWGjSXhT+hz/ELBPnKFfhJA08vKe4C+hEGmS5k25NL1IOSS/Y0tiUI/Q4YM9voSeaJSBakAGx5T5GeQbK6jfwZEqsTUVCr4MAUmbkKRn6EMmPjor6ViCROVm4ISLN2dIk+DlPYacPefAMBygffCPZEC+1HkQ9gQLXe5dcIqRUMlwEz9O7eZD6bIe7AOKAnWP+G+0Q05PeUDBysIOHSTZ3WhwIOwLiDqvP3pd73/+1IGGNwACLuc4HkKvY0irwIpqVmX3odcfOtzo35d0lSgOEtSq0kp04hhN4o8CAc/hXFR4zVrt+F2h5438vkv/lqeq0SactOfZNEoTxa7Yo3i4sV08x6Dj7v+2XHqpMRSLgtMSAyhsCZAH3AYB3ktOg05+/EfVykFktAixb0UeRaOO2Lu78L1T3xmLiAMCMHxR3NPngSBBqFT1lhRssMRH8Io+hSiD4U+REbVF26YhRS47oKKr2lgRnBt1VKcSbEHEVCbF5cWbZgunbqdJJ0XBERncX1OcDdFHkRID0GT5ndzTpLqcDwQ2qoxvOPD4oA6LAHTBEycQzFVItXRMKRCh/GhF7H2ysIJU4gED1JUGVNE3bV14/iruRfRc5mmQgyjqGLpUzBt9E5rL6J9owYcC9pTUBGE9DBSHRa38SCIWs4EL9ZIYAe3zDbRKxyL/IhwHFhxjVJcTVGFcLces1v5EAG9rrMXDGOIKnTytP5kWjMfIqKRSITugXFghU7pG80lguFr8iOO0750kOKZipwG1GWJZgJDiuco8NqJ+UtHAuhbiRzREdr7l+A6Lz53EEW/gGuqxPAdUVCBj89054LjIIp8iIju1L90mOJOCl3nOjoMXIhiYNkaXjyhkHbUt5jg+BdR5PhYbyE4TF7e8eIJhT+C6b4yLe7KcugMYUTr/QEGzc1LcSlFfkRE5yFjgSZzfN9X8Si4crwcsAAGs/fydSnwIwJqNxNcn1OIx7aQasVWPwWh4n7c6iXoD6Ry48WXJxFdoP2SbcgA9t7xPUlJYRxHURiGgUyZgCiK85F2HQ99k4Nz3SFXb/39CaL4RyUbRV43fnrDAeu3MK5N3G2nS16fD0DvdRZI8CyF5E1EtL3S0PqdEzXyGqtmfPHMyItPOHCXQdtsvslGm2y+Vd8d9j7inOseeH/KUqi7DkJoa8XRsJYHUZxvRJIVGIVTsYQXKcKSpqamJC3UJDXadZI3DKdRRN6DJr2LpizbRB2njIvCls3vP8sSs13nZyggryKkVhM02aQHGiQIcx2b8H2dF6HLnX/KxZ1WOglkxy+dKCTPgiLq+K1J3Gmlwq4mdqGIfAh9rnsuF3da2YMJvNuaIvIw5Eg5r0ktFJWjeALcKB/ZvAwKAtr8S0CNo6gIJTIuTNlJ3kFPQ+kvJ/+dEUrMpfsSngJLr2shS70Npce0uSQjRMJdFmQaqkvUZfeuTdnhdSjN1urkrwGFXWlRF79xZX0+feg6mdoB+R4UyI7Tf8Tk3LKaCWNWkX/thAFAw+tH1KuUZ2FxAdUN/K/PFkNJyhqbcS6KEueMFbyDxn9//OgepFJehYuw0067XvHMD43c6pwt+OaB03o1z3fX6kLbMsBN5G3Uqc9hF936/Mfj/1r4n+WrmpI0TZpWLFs8/YdPX7jtwoO2VGsfyuurDQ0l+HAYWKY2bfPWHdfYIHM6bLX5xmt3q28REWleO3WG/1QObRaDF2N5ZworDcdBp2YKRXHOM+0UC4pbj2OJQ7SYjuIHf4bLiaJKw33KOR0lH1UoxUSzdZjdyqHS3+nCA4ChbYjCyqLqUhhQ3YhiCy44fo7dKU2PIS1uNwH8fZy0dX5Ezi4dMg0o7jsMH5AzRHQqmBBat/BXgyXhR2TUNh9C9263SHCnu7kjoLWXK6u/QoIx4Ik1iSLvQWmZrndzMKY5zz6OoYjc5TeQQpdFKtB4VQsKQs8hDCk4Z57epyN1WL4WBQ5v3a757WEt07RDXTC1NUBDfVUJ2X2CAZUpkeIDeTj8+kDZHNISPCM+7k0UW6rcbRmEPiauirg2ehl5j6YWRzhdOoS0ZQquZr0McV93oshK5a1TPWa3qhIuovqhK8EZDA6w7F9d38FLkQiZjZgWXhhTGFpofCyYFr81qxau4/42dOYK+X1w9u04vYQmZNmQ+GlfKcMYTyDVqMowOqgOroFfGlJSkSa8SK7rHlA8SiEFYCbj7S2IItNfFoGLYqR4qyqo1R9Fztaabc1Na+ccFFKLT8CYYZb6pLd1NCNiugGpTtcE91BU/kX2ZUsgjEtFE/69PkUVmcYehlJozDT7TDKQEdMWq8AB3ccFFJddyP6TLbjAGKasK298RfKx8y3qIxJg3K5aH1AddZgCBqHVcVcKy821xTt5W2s6RzzVplL9Pgip2wPKkjsjTKv0cm+pX6w8H0cR0bo/ITU4GrtSUGaq0+2pRdOIFPh570y9Slar9wdAyo27NAfeO6x9gZqtzlmCVK8iw6hSL7Lp9Nk2QyMVWHxJTGFQ4UF9wM9WNQMw58Xzd9mwW8/ND7z1L0A/UQv13YLyCtlpjGwTG65HV6OKVzoMKD5/XgFhHi60bHmC3AuhBjdnGwrLyrXuczZCRKK6CuJyVLDLXSm4+djmaaqowxOzsCCGb0pra1tduxSc2QyIGScSRSWZ8GKiLd4quMUmtdREx2iR4kSKysl1xO9WtpajaUS7jKtU9dwr/zzrODCG4bcW5eTq+4mtrX1j04wqnT/jjNmuCalhipMpKiHV7f78Itv4uWgfyVXC6na8ZRU4c0nI45sy2tro/AUubG1Y0pl+k1dyMlwdHMmWFJZOyF4/WNlaZmBrS1frXUa7IwQEkyGhpbvzrwMpt+H6apCkyr3SO2WG2X03nf9uobBkVLsRTeBWi+zpx5sKKVvlh64AlABoy4Nx3EsleuJQHN4nTpe33JCS1Vw1vC1RWBVOjg2eZpqYMeN137WlOiKibb+2XWS/vokBV4llbPHIMouYMZEhFZh3QHaUiVrzSVshP+5lwFVyGesOm4l8gdA0gmApgMe7UVSmRXbzqxohlFIzSmDRhVHO1lYNIcWdOIoDYAnLhQkVxUaterkfUVSmbn7wVBsuxoCHe+i4quZvaMtrxiQGJ01jr95Y6SwlQUzU6wNbrlEDFPWIqpKgjU998KtZy5tSLni6csm0D+44fgNlZJZISBdlF9WG+vvYUgtxFTDVsvvGvfr177PlOu3q1NYKyjS/nTXX1tYOqy+2tVXJHke6nhIFperXu44DEjtbu7EU4oEUBKFMQWDTgyrDtf6L1rZ279JzlclwUuCayLRsfcMKcAYbW3tR6W1tqcZP7y1lD3Gs6jF/2j5fPtQz4/IltcUbgr22IVHkkmvAKGtb29+j1Gr3MQBYcW2LjMkV1fNhuLG1/oOMFe1y/WLlKTUFph0gW8uJo//ixRBWtnblTW0c29qqXpOsO7Rgz4JnxFvSTNr30/1+tn2+fHUjL3JFcjm29wsr8rOHLGcMK29olTHZabv5W7ZCftjTl7aWBt/+J3JNWNxuvx8i282c6nBLYrmLuvCC0JO2lo7+CQBPZXPpx807hnsCSnOe9m/b58sHuvvS2lBHIEmVx3Gj5msa2iZjMhGyw2hbIZ/3Uyk/5ouzzC2Gz5+HSyYd1zrP2gr562hFiD/THnlXialP8gO5EC20tS2vXgrBbGztihtVW+tPhNTsqv9YPDYwBnZz24wpz3XYb9a2dkNPcmlH0vNAasP0jzKQgpio90dWXAkwaY8cl3+JXSdKJgvik22kfl3vFZaL7AXnK7bWw0k2VnDBYovphDPw29frfsF8W1t7f6Gt9XJhz0ctmZqW2Qr5LG9rfU4M+dYyfpO5sLV+T0FGnGocHCdVEZa2tsBd5fvCzndpp1Yne9Z4WbG1tSFJ0/qp8fwCY66Ju+u4agDT0f/kCDfU/PMCaWtrSQoDqh+RGDCZ29puBly1Qcam2ghxc1vbV7ePWFOYDpqWY7Lh+vMonZBaw9Ti6mXgDDa29vrWGltbi5jWfynHZMb10gYaIbWKaY8fcgtR/fPlhN10XLWKKaTwkiXyAtna6m+CZ9T8c3W2trYxrf5IAogkZZxzpgTur7y7a46rVhKb3jG98JffhytCamdSTEurna9+4bupf075+tkrtm9e1UKqPGSnrrkmVKfWFsRBTkBI/383EQBWUDgg4AkAAPA7AJ0BKgABAAE+aS6RRb+ioZj8nZH4BoSzN0t4Xv4URwMuYdLlk3+AYAAkf5rZHl+d/KXvkNl99/uX7V9Ejyx4T6YFHXrL84Z3f8B/vfYJ+i//F7g36If5T+2f4PsJ+ZP+o/6f9wfee9Pn+M9QT/PdR96AHlzeyJ/YP+H+83tP///s0+mP6YfwD8AP0A/H/v/t/sPVPcSB1/7vdTpkrkEi4zOd3vsqJXSBCPBlrzi5vrGFkFt916WYYIdga1+tvAq+G2xSILO052kDnvynzOMFPqjRr/7Z2uNTrEsUVsD5xvpnw/f7ibN3PobcjMZyE7YlStxBwNVdt2d9jIibldIDjx5HEzSbW/y13niAcYa1ACU/VoABXgLzenOGXMdirlxXO/3b6cFIpTAqvkVVDHteIe1PHSEL3epVE1Ve/wePnHoHZobTA60hxKituMdw7YlMeez+SdDkLtaPdTvlXCIUiMcSorbjHbtaHXc9nYy8tqEG209DL6Be4j7bIDM3RaZQWLTvCDoS4nzm0dqdIYR/cOm5uoZoBe2gL8bQrOZp6JoIcERd/Ciqi6DRafhChj0peWRpxhbvno+7tdIMcgdZE0fX0+c2ybBehEXetr6ld1OkqdeIjfVvRYf+YwM3Q/dUhYaneDRAAP42mgBit/Op0m00SXFp0pFuTE1t8+y5QaMXbV9ywKe4kGFeF+Z1MzxQAv/yKCdQMN8I6vcbzWQ2GCTsR/nPWZ9/CZkBdQkbdthlywAAA+NCS3bo6bcrGZco3hCB9oKXh4Z++sVh1o5Rd60t2Plx/sAeLENKd2T8RHxOwlAaGjOH991NFpyT7GYuGBegS0HAj1xGasL0Q1EZxuCgO3LDt3MF1+zsxyTMKx9qJ6+izh8NRCnMQI/AAYbXWYZ3omhcnnXPJuNVAZEFamdXco5t0kgzoe+xaMgppCS3y+pxxXCjNlRxY07bMM38EQHbtiGRO7CF8M5QsK4rc0zsraYPwELzem9YhF2yE+Zt4frUfxVlKPhMS5Saiiez4ShXYH2P+xB7BwluABpQ3wdFLQZNTIyTDgm9gzcovIgs3CUFMF+vh1D5HaQ1tQppDMoPNmnma1356OGaw/MACfA5Pz8FkSB5L56uUXknVUy/dWphs/RhXXAQAeYfRsnjS5kjMgidq248SvDhQVEH26C5OGZrs37yGr5HmBHt7nlp+6KV/2bLYSImdVO1UWelbun06aSIbnpa6imJwIoZZh425jnqKn9qpP48rD45ZTfJYCLyuC5FH9m7amZ/u3ce7XxGSkwUA/3CgJnTo1D2DjhcqJJdysPXI2G6fr9MltSTkdt91+TWsotnq1TGMQqWK8R5T5y5Ohs+bbLrPdZcKqSMJx5EGDGeJz/s2r//b992A0bSuQleWVUOPh4SRPGkPM8hcOH8Mcsc8L8mMoXIhH43nPkSdbd7jtgkq6h5ZBXBKW//t5whnlh0OGmb7U3QLT5JAyQKjSO3Y1ulFRBFbcyX6GLu3OA2f7QBL0AELXvb///DjiHtOfO9lPRz538JuMqmHImB8+OBbeyN+To9VLwAzESk7YLkIDdqC69JJMmuokoVAGPQ0fbPn4K2XUn0Rdi8rnH+gQEfchr1zgjWQrysbdWcWw1E6YXs+dBWo7pfpXwvQoi5lhpP3PR66St9EEzTDIeWqM5XBJYLIDbpfg3LqU9eQb9sBWSbrbKEx5ZE96stRkAdnI6P8BbsvHED3uPO70f/gnU+bP/a8aAqCyndHYX43FUx7glg81YD9QKvfWNnt1fTsvoa7jN0vYP1lwxyMoVd8mQYM6Io1t6U27OuWTIJ1XQhOCO6phOBWO5C5vL4J7eRAZt7ERV3gHwuAoY7uVM0BNFntETr9/9DiSHf+Mu3gXUXNckrbLXb3kmZmMIKCe7MNIaxoVaUvtqcJzB+e4LyXgm3LNP4oVfK1Y/sQ8LDYOafzF2xNtJwluaBUzk2IMt9sFoJUecADcnj0w6QuYDYTHb23x85H9Yr06iTGQ/B8To50L/8F85ywmK27nCD/pndQZwNyTxa1J4mr+/wzT1Xz5KSgOQz+l4VqSlr8r6e/ujNDT4uw5HasNSSpd3ol0TVJ9shZoCG2bkuGqwd6qSg5ZZMPV2b9gWTw5dWWwU1hGfa3QGJRos6zw5BQiI6zTOu1CWVp+dJGfhf6cC8VjAbgA9QfEmTlFHdOSxIGilGLrpjBbwnTHcw6qY3bOliiR2zWT0VL21Ic2du0iUrkp5RxsyP10273mN0a833yV+3DaS/ufHUsZAxOqXoF5z/cxTL72h4mkc/8hx8Xasg11Kj3ONF0qLfW+YxWlx4cYyKh6tH6wo9WjZ/6F2x/GN3gm3Qc4rjtuK10l3/HkcypJgn85HmvFz4ZfrxbbZchI7CRDs//d9zNqEkdGK+RAA8uyxN03567DxjEr5p80+JLKASTsQb1DdyFOe5EMEM/g0CyUWc9B5e5iTwocDpbN0lAKDrsrbVEsXuV3O/YIiHtaxod5MK3Vca9vwodxkg8twt7TNoQKT7PU8wUM+45f//t086eraGR7DFg6pHmUFdr75CqO/47EhmRI+J+xv3gBRiEToaTdSoZrszg6Cj/3f1x6wOJKIrLyhD+HtKmadnTP3Px27v6GRajH8+SgVSVEWxtLPNHiRqLdSEks7LXjFVtbqJcV5YZDbY9j+Xt+Zs1kcAgJAAOfwnpa0hYTMQ9at4erlS9cgK7OVedrpk66Vtk1Y04O6zg3PmD2hIGe0xJG5rcJQStId0EbKJ+Cj9LHOYSfLotYf+5s2hEjCYZO0jAYRNUR6YxGl0B8EYVGV82jtTN/wS+WPBuIBpOv/oOygTVexKQb78Hi5aVRJQszeKbZCmrT3fP8dcNBnd4U2LvNsAUw99LNxbUUdo8g63LJzNQIyqMXDZt8K95KCzPSlAsyuH+g5Y7hqsb7+LseyHto8RdnRdJHGf734JdEPtsC4ay5fWkUZZgPcBoC+gABbquPVeMQ1ZSTW1el6X8IJ6Dr4MdqYQpd7bZhSNJtwo2i+dav/x4zcDf4UI5joLXByvQDGxYAb21h2otTp4IGP5aQFMUH/mW54V+W0VXI/0MApk9pRgAA5AZ18qsvitbIhJ6k6ihtKaaHOM/XnXhwIgZhyBKClJqE2+PzL1gi4az9jq43iNrZwUHrwAGYYLzOyku5Hmk796C7ds0YDQ3CYMrx26Qti1Sbughle7EnvCAdXsa6CPiDMH07r6PSs3NqVYfqKqyz+jIABCUME024GlRb+ayrN37qA+8t2IyMMh6+XyyD4cpxsl9rBvp85u76x3gRR+b2yExwe+2rDyLaCmNJ8SXqiMuAObjRxMTiNvjLsSDpCzV3fccAAARVhJRroAAABFeGlmAABJSSoACAAAAAYAEgEDAAEAAAABAAAAGgEFAAEAAABWAAAAGwEFAAEAAABeAAAAKAEDAAEAAAACAAAAEwIDAAEAAAABAAAAaYcEAAEAAABmAAAAAAAAAEgAAAABAAAASAAAAAEAAAAGAACQBwAEAAAAMDIxMAGRBwAEAAAAAQIDAACgBwAEAAAAMDEwMAGgAwABAAAA//8AAAKgBAABAAAAAAEAAAOgBAABAAAAAAEAAAAAAAA=;" vertex="1" parent="1">
          <mxGeometry x="750" y="130" width="56" height="56" as="geometry" />
        </mxCell>
        <mxCell id="tQYVdQLkCmxTkYTXcwZQ-69" value="LINE official account" style="text;strokeColor=none;align=center;fillColor=none;html=1;verticalAlign=middle;whiteSpace=wrap;rounded=0;fontStyle=1;fontSize=18;" vertex="1" parent="1">
          <mxGeometry x="220" y="60" width="110" height="45" as="geometry" />
        </mxCell>
        <mxCell id="tQYVdQLkCmxTkYTXcwZQ-70" value="raspberry pi" style="text;strokeColor=none;align=center;fillColor=none;html=1;verticalAlign=middle;whiteSpace=wrap;rounded=0;fontStyle=1;fontSize=18;" vertex="1" parent="1">
          <mxGeometry x="1370" y="65" width="120" height="30" as="geometry" />
        </mxCell>
        <mxCell id="tQYVdQLkCmxTkYTXcwZQ-80" style="edgeStyle=orthogonalEdgeStyle;rounded=0;orthogonalLoop=1;jettySize=auto;html=1;entryX=1.003;entryY=0.478;entryDx=0;entryDy=0;entryPerimeter=0;exitX=0.5;exitY=1;exitDx=0;exitDy=0;fillColor=#f5f5f5;gradientColor=#b3b3b3;strokeColor=#666666;strokeWidth=2;" edge="1" parent="1" source="tQYVdQLkCmxTkYTXcwZQ-79" target="tQYVdQLkCmxTkYTXcwZQ-76">
          <mxGeometry relative="1" as="geometry" />
        </mxCell>
        <mxCell id="tQYVdQLkCmxTkYTXcwZQ-79" value="&lt;font style=&quot;font-size: 14px;&quot;&gt;&lt;b&gt;raspi-catcam&lt;/b&gt;&lt;/font&gt;" style="shape=image;html=1;verticalAlign=top;verticalLabelPosition=bottom;labelBackgroundColor=#ffffff;imageAspect=0;aspect=fixed;image=https://cdn4.iconfinder.com/data/icons/ionicons/512/icon-social-github-128.png" vertex="1" parent="1">
          <mxGeometry x="1530" y="25" width="80" height="80" as="geometry" />
        </mxCell>
        <mxCell id="tQYVdQLkCmxTkYTXcwZQ-87" value="" style="sketch=0;points=[[0,0,0],[0.25,0,0],[0.5,0,0],[0.75,0,0],[1,0,0],[0,1,0],[0.25,1,0],[0.5,1,0],[0.75,1,0],[1,1,0],[0,0.25,0],[0,0.5,0],[0,0.75,0],[1,0.25,0],[1,0.5,0],[1,0.75,0]];outlineConnect=0;fontColor=#232F3E;gradientColor=#FF4F8B;gradientDirection=north;fillColor=#BC1356;strokeColor=#ffffff;dashed=0;verticalLabelPosition=bottom;verticalAlign=top;align=center;html=1;fontSize=12;fontStyle=0;aspect=fixed;shape=mxgraph.aws4.resourceIcon;resIcon=mxgraph.aws4.sqs;" vertex="1" parent="1">
          <mxGeometry x="930" y="1035" width="78" height="78" as="geometry" />
        </mxCell>
        <mxCell id="tQYVdQLkCmxTkYTXcwZQ-88" style="edgeStyle=orthogonalEdgeStyle;rounded=0;orthogonalLoop=1;jettySize=auto;html=1;exitX=0;exitY=0.5;exitDx=0;exitDy=0;dashed=1;fillColor=#dae8fc;strokeColor=#6c8ebf;strokeWidth=2;entryX=1;entryY=0.5;entryDx=0;entryDy=0;entryPerimeter=0;" edge="1" parent="1" source="tQYVdQLkCmxTkYTXcwZQ-25" target="tQYVdQLkCmxTkYTXcwZQ-87">
          <mxGeometry relative="1" as="geometry">
            <mxPoint x="1214" y="971" as="sourcePoint" />
            <mxPoint x="239" y="970" as="targetPoint" />
          </mxGeometry>
        </mxCell>
        <mxCell id="tQYVdQLkCmxTkYTXcwZQ-89" value="Delete&lt;br&gt;Queue" style="edgeLabel;html=1;align=center;verticalAlign=middle;resizable=0;points=[];fontStyle=1;fontSize=14;" vertex="1" connectable="0" parent="tQYVdQLkCmxTkYTXcwZQ-88">
          <mxGeometry x="-0.0004" y="3" relative="1" as="geometry">
            <mxPoint x="-2" y="-8" as="offset" />
          </mxGeometry>
        </mxCell>
        <mxCell id="tQYVdQLkCmxTkYTXcwZQ-94" style="edgeStyle=orthogonalEdgeStyle;rounded=0;orthogonalLoop=1;jettySize=auto;html=1;entryX=0.5;entryY=0;entryDx=0;entryDy=0;entryPerimeter=0;exitX=0;exitY=0.5;exitDx=0;exitDy=0;strokeWidth=2;" edge="1" parent="1" source="tQYVdQLkCmxTkYTXcwZQ-92" target="tQYVdQLkCmxTkYTXcwZQ-2">
          <mxGeometry relative="1" as="geometry">
            <mxPoint x="930" y="65" as="sourcePoint" />
          </mxGeometry>
        </mxCell>
        <mxCell id="tQYVdQLkCmxTkYTXcwZQ-92" value="&lt;font style=&quot;font-size: 14px;&quot;&gt;&lt;b&gt;raspi-catcam-lambda&lt;/b&gt;&lt;/font&gt;" style="shape=image;html=1;verticalAlign=top;verticalLabelPosition=bottom;labelBackgroundColor=#ffffff;imageAspect=0;aspect=fixed;image=https://cdn4.iconfinder.com/data/icons/ionicons/512/icon-social-github-128.png" vertex="1" parent="1">
          <mxGeometry x="929" y="25" width="80" height="80" as="geometry" />
        </mxCell>
        <mxCell id="tQYVdQLkCmxTkYTXcwZQ-95" value="Delete Image&lt;br&gt;Video file" style="rounded=1;whiteSpace=wrap;html=1;fillColor=#647687;fontColor=#ffffff;strokeColor=#314354;fontStyle=1" vertex="1" parent="1">
          <mxGeometry x="1350" y="1055" width="120" height="46" as="geometry" />
        </mxCell>
        <mxCell id="tQYVdQLkCmxTkYTXcwZQ-96" value="crontab" style="edgeLabel;html=1;align=center;verticalAlign=middle;resizable=0;points=[];fontStyle=1;fontSize=14;" vertex="1" connectable="0" parent="1">
          <mxGeometry x="1409.9999999999998" y="1110" as="geometry" />
        </mxCell>
      </root>
    </mxGraphModel>
  </diagram>
</mxfile>
